<?xml version="1.0" encoding="us-ascii" standalone="no"?><svg xmlns="http://www.w3.org/2000/svg" xmlns:xlink="http://www.w3.org/1999/xlink" contentStyleType="text/css" height="394px" preserveAspectRatio="none" style="width:1188px;height:394px;background:#FFFFFF;" version="1.1" viewBox="0 0 1188 394" width="1188px" zoomAndPan="magnify"><defs/><g><rect fill="#DDDDDD" height="382.082" style="stroke:#181818;stroke-width:0.5;" width="291" x="582" y="6"/><text fill="#000000" font-family="sans-serif" font-size="13" font-weight="bold" lengthAdjust="spacing" textLength="38" x="708.5" y="18.5684">Kafka</text><rect fill="#DDDDDD" height="382.082" style="stroke:#181818;stroke-width:0.5;" width="102" x="875" y="6"/><text fill="#000000" font-family="sans-serif" font-size="13" font-weight="bold" lengthAdjust="spacing" textLength="96" x="878" y="18.5684">Order indexer</text><rect fill="#DDDDDD" height="382.082" style="stroke:#181818;stroke-width:0.5;" width="60" x="1122.5" y="6"/><text fill="#000000" font-family="sans-serif" font-size="13" font-weight="bold" lengthAdjust="spacing" textLength="46" x="1129.5" y="18.5684">Mongo</text><line style="stroke:#181818;stroke-width:0.5;stroke-dasharray:5.0,5.0;" x1="25" x2="25" y1="56.7988" y2="353.5938"/><line style="stroke:#181818;stroke-width:0.5;stroke-dasharray:5.0,5.0;" x1="206.5" x2="206.5" y1="56.7988" y2="353.5938"/><line style="stroke:#181818;stroke-width:0.5;stroke-dasharray:5.0,5.0;" x1="503" x2="503" y1="56.7988" y2="353.5938"/><line style="stroke:#181818;stroke-width:0.5;stroke-dasharray:5.0,5.0;" x1="648" x2="648" y1="56.7988" y2="353.5938"/><line style="stroke:#181818;stroke-width:0.5;stroke-dasharray:5.0,5.0;" x1="795" x2="795" y1="56.7988" y2="353.5938"/><line style="stroke:#181818;stroke-width:0.5;stroke-dasharray:5.0,5.0;" x1="925.5" x2="925.5" y1="56.7988" y2="353.5938"/><line style="stroke:#181818;stroke-width:0.5;stroke-dasharray:5.0,5.0;" x1="1152.5" x2="1152.5" y1="56.7988" y2="353.5938"/><rect fill="#E2E2F0" height="30.4883" rx="2.5" ry="2.5" style="stroke:#181818;stroke-width:0.5;" width="41" x="5" y="25.3105"/><text fill="#000000" font-family="sans-serif" font-size="14" lengthAdjust="spacing" textLength="27" x="12" y="45.8457">SDK</text><rect fill="#E2E2F0" height="30.4883" rx="2.5" ry="2.5" style="stroke:#181818;stroke-width:0.5;" width="41" x="5" y="352.5938"/><text fill="#000000" font-family="sans-serif" font-size="14" lengthAdjust="spacing" textLength="27" x="12" y="373.1289">SDK</text><rect fill="#E2E2F0" height="30.4883" rx="2.5" ry="2.5" style="stroke:#181818;stroke-width:0.5;" width="88" x="162.5" y="25.3105"/><text fill="#000000" font-family="sans-serif" font-size="14" lengthAdjust="spacing" textLength="74" x="169.5" y="45.8457">ETHEREUM</text><rect fill="#E2E2F0" height="30.4883" rx="2.5" ry="2.5" style="stroke:#181818;stroke-width:0.5;" width="88" x="162.5" y="352.5938"/><text fill="#000000" font-family="sans-serif" font-size="14" lengthAdjust="spacing" textLength="74" x="169.5" y="373.1289">ETHEREUM</text><rect fill="#E2E2F0" height="30.4883" rx="2.5" ry="2.5" style="stroke:#181818;stroke-width:0.5;" width="53" x="477" y="25.3105"/><text fill="#000000" font-family="sans-serif" font-size="14" lengthAdjust="spacing" textLength="39" x="484" y="45.8457">erc20</text><rect fill="#E2E2F0" height="30.4883" rx="2.5" ry="2.5" style="stroke:#181818;stroke-width:0.5;" width="53" x="477" y="352.5938"/><text fill="#000000" font-family="sans-serif" font-size="14" lengthAdjust="spacing" textLength="39" x="484" y="373.1289">erc20</text><rect fill="#E2E2F0" height="30.4883" rx="2.5" ry="2.5" style="stroke:#181818;stroke-width:0.5;" width="125" x="586" y="25.3105"/><text fill="#000000" font-family="sans-serif" font-size="14" lengthAdjust="spacing" textLength="111" x="593" y="45.8457">erc20.allowance</text><rect fill="#E2E2F0" height="30.4883" rx="2.5" ry="2.5" style="stroke:#181818;stroke-width:0.5;" width="125" x="586" y="352.5938"/><text fill="#000000" font-family="sans-serif" font-size="14" lengthAdjust="spacing" textLength="111" x="593" y="373.1289">erc20.allowance</text><rect fill="#E2E2F0" height="30.4883" rx="2.5" ry="2.5" style="stroke:#181818;stroke-width:0.5;" width="148" x="721" y="25.3105"/><text fill="#000000" font-family="sans-serif" font-size="14" lengthAdjust="spacing" textLength="134" x="728" y="45.8457">log.balance-history</text><rect fill="#E2E2F0" height="30.4883" rx="2.5" ry="2.5" style="stroke:#181818;stroke-width:0.5;" width="148" x="721" y="352.5938"/><text fill="#000000" font-family="sans-serif" font-size="14" lengthAdjust="spacing" textLength="134" x="728" y="373.1289">log.balance-history</text><rect fill="#E2E2F0" height="30.4883" rx="2.5" ry="2.5" style="stroke:#181818;stroke-width:0.5;" width="65" x="893.5" y="25.3105"/><text fill="#000000" font-family="sans-serif" font-size="14" lengthAdjust="spacing" textLength="51" x="900.5" y="45.8457">listener</text><rect fill="#E2E2F0" height="30.4883" rx="2.5" ry="2.5" style="stroke:#181818;stroke-width:0.5;" width="65" x="893.5" y="352.5938"/><text fill="#000000" font-family="sans-serif" font-size="14" lengthAdjust="spacing" textLength="51" x="900.5" y="373.1289">listener</text><rect fill="#E2E2F0" height="30.4883" rx="2.5" ry="2.5" style="stroke:#181818;stroke-width:0.5;" width="52" x="1126.5" y="25.3105"/><text fill="#000000" font-family="sans-serif" font-size="14" lengthAdjust="spacing" textLength="38" x="1133.5" y="45.8457">order</text><rect fill="#E2E2F0" height="30.4883" rx="2.5" ry="2.5" style="stroke:#181818;stroke-width:0.5;" width="52" x="1126.5" y="352.5938"/><text fill="#000000" font-family="sans-serif" font-size="14" lengthAdjust="spacing" textLength="38" x="1133.5" y="373.1289">order</text><polygon fill="#181818" points="194.5,84.1094,204.5,88.1094,194.5,92.1094,198.5,88.1094" style="stroke:#181818;stroke-width:1.0;"/><line style="stroke:#181818;stroke-width:1.0;" x1="25.5" x2="200.5" y1="88.1094" y2="88.1094"/><text fill="#000000" font-family="sans-serif" font-size="13" lengthAdjust="spacing" textLength="157" x="32.5" y="83.3672">calling approve for erc20</text><polygon fill="#181818" points="491.5,113.4199,501.5,117.4199,491.5,121.4199,495.5,117.4199" style="stroke:#181818;stroke-width:1.0;"/><line style="stroke:#181818;stroke-width:1.0;" x1="206.5" x2="497.5" y1="117.4199" y2="117.4199"/><text fill="#000000" font-family="sans-serif" font-size="13" lengthAdjust="spacing" textLength="273" x="213.5" y="112.6777">approval event (get by blockchain-scanner)</text><polygon fill="#181818" points="783,142.7305,793,146.7305,783,150.7305,787,146.7305" style="stroke:#181818;stroke-width:1.0;"/><line style="stroke:#181818;stroke-width:1.0;" x1="503.5" x2="789" y1="146.7305" y2="146.7305"/><text fill="#000000" font-family="sans-serif" font-size="13" lengthAdjust="spacing" textLength="94" x="510.5" y="141.9883">kafka message</text><polygon fill="#181818" points="514.5,172.041,504.5,176.041,514.5,180.041,510.5,176.041" style="stroke:#181818;stroke-width:1.0;"/><line style="stroke:#181818;stroke-width:1.0;" x1="508.5" x2="794" y1="176.041" y2="176.041"/><text fill="#000000" font-family="sans-serif" font-size="13" lengthAdjust="spacing" textLength="94" x="520.5" y="171.2988">kafka message</text><polygon fill="#181818" points="636.5,201.3516,646.5,205.3516,636.5,209.3516,640.5,205.3516" style="stroke:#181818;stroke-width:1.0;"/><line style="stroke:#181818;stroke-width:1.0;" x1="503.5" x2="642.5" y1="205.3516" y2="205.3516"/><text fill="#000000" font-family="sans-serif" font-size="13" lengthAdjust="spacing" textLength="121" x="510.5" y="200.6094">allowance message</text><polygon fill="#181818" points="914,230.6621,924,234.6621,914,238.6621,918,234.6621" style="stroke:#181818;stroke-width:1.0;"/><line style="stroke:#181818;stroke-width:1.0;" x1="648.5" x2="920" y1="234.6621" y2="234.6621"/><text fill="#000000" font-family="sans-serif" font-size="13" lengthAdjust="spacing" textLength="121" x="655.5" y="229.9199">allowance message</text><polygon fill="#181818" points="1140.5,259.9727,1150.5,263.9727,1140.5,267.9727,1144.5,263.9727" style="stroke:#181818;stroke-width:1.0;"/><line style="stroke:#181818;stroke-width:1.0;" x1="926" x2="1146.5" y1="263.9727" y2="263.9727"/><text fill="#000000" font-family="sans-serif" font-size="13" lengthAdjust="spacing" textLength="114" x="933" y="259.2305">get existed orders</text><line style="stroke:#181818;stroke-width:1.0;" x1="926" x2="968" y1="293.2832" y2="293.2832"/><line style="stroke:#181818;stroke-width:1.0;" x1="968" x2="968" y1="293.2832" y2="306.2832"/><line style="stroke:#181818;stroke-width:1.0;" x1="927" x2="968" y1="306.2832" y2="306.2832"/><polygon fill="#181818" points="937,302.2832,927,306.2832,937,310.2832,933,306.2832" style="stroke:#181818;stroke-width:1.0;"/><text fill="#000000" font-family="sans-serif" font-size="13" lengthAdjust="spacing" textLength="114" x="933" y="288.541">set order approval</text><polygon fill="#181818" points="1140.5,331.5938,1150.5,335.5938,1140.5,339.5938,1144.5,335.5938" style="stroke:#181818;stroke-width:1.0;"/><line style="stroke:#181818;stroke-width:1.0;" x1="926" x2="1146.5" y1="335.5938" y2="335.5938"/><text fill="#000000" font-family="sans-serif" font-size="13" lengthAdjust="spacing" textLength="188" x="933" y="330.8516">saving orders with new status</text><!--SRC=[RP1DRiGW38NtdCBAgbraL7N9egj6gZGQLUhF0HpY8IWK8g19vlO5Pf8edUp0_jwpdpzVZr2-GFNrLdrKtoSE0hLMHWBslRC3mTaw82UUdzZC93vN-0r23JIG2V0WAK1zWLfRqOaMbIczG6F8FRAiID92MtceKQCHLBRA1-ik1N3eyDmX_93tA8djK-laBRsQvzSXPh1ZaYRZvREQtr5HgkCGYglkAjZIZQHr3JaEAInDgTvSItv3pMyEFe8PMEwrP-TnI7U_Ei6eGWk6Hl01mwzdhBOJ5CUKkc0zkg24wZ7U_2xBjhjtHaQcWUXtCttFgodJq4HkAv_N_ASuMIFjbinhBzWV]--></g></svg>