<?xml version="1.0" encoding="us-ascii" standalone="no"?><svg xmlns="http://www.w3.org/2000/svg" xmlns:xlink="http://www.w3.org/1999/xlink" contentStyleType="text/css" height="465px" preserveAspectRatio="none" style="width:1181px;height:465px;background:#FFFFFF;" version="1.1" viewBox="0 0 1181 465" width="1181px" zoomAndPan="magnify"><defs/><g><rect fill="#DDDDDD" height="453.7031" style="stroke:#181818;stroke-width:0.5;" width="276" x="589.5" y="6"/><text fill="#000000" font-family="sans-serif" font-size="13" font-weight="bold" lengthAdjust="spacing" textLength="38" x="708.5" y="18.5684">Kafka</text><rect fill="#DDDDDD" height="453.7031" style="stroke:#181818;stroke-width:0.5;" width="102" x="867.5" y="6"/><text fill="#000000" font-family="sans-serif" font-size="13" font-weight="bold" lengthAdjust="spacing" textLength="96" x="870.5" y="18.5684">Order indexer</text><rect fill="#DDDDDD" height="453.7031" style="stroke:#181818;stroke-width:0.5;" width="60" x="1115" y="6"/><text fill="#000000" font-family="sans-serif" font-size="13" font-weight="bold" lengthAdjust="spacing" textLength="46" x="1122" y="18.5684">Mongo</text><line style="stroke:#181818;stroke-width:0.5;stroke-dasharray:5.0,5.0;" x1="25" x2="25" y1="56.7988" y2="425.2148"/><line style="stroke:#181818;stroke-width:0.5;stroke-dasharray:5.0,5.0;" x1="206.5" x2="206.5" y1="56.7988" y2="425.2148"/><line style="stroke:#181818;stroke-width:0.5;stroke-dasharray:5.0,5.0;" x1="503" x2="503" y1="56.7988" y2="425.2148"/><line style="stroke:#181818;stroke-width:0.5;stroke-dasharray:5.0,5.0;" x1="648.5" x2="648.5" y1="56.7988" y2="425.2148"/><line style="stroke:#181818;stroke-width:0.5;stroke-dasharray:5.0,5.0;" x1="787.5" x2="787.5" y1="56.7988" y2="425.2148"/><line style="stroke:#181818;stroke-width:0.5;stroke-dasharray:5.0,5.0;" x1="918" x2="918" y1="56.7988" y2="425.2148"/><line style="stroke:#181818;stroke-width:0.5;stroke-dasharray:5.0,5.0;" x1="1145" x2="1145" y1="56.7988" y2="425.2148"/><rect fill="#E2E2F0" height="30.4883" rx="2.5" ry="2.5" style="stroke:#181818;stroke-width:0.5;" width="41" x="5" y="25.3105"/><text fill="#000000" font-family="sans-serif" font-size="14" lengthAdjust="spacing" textLength="27" x="12" y="45.8457">SDK</text><rect fill="#E2E2F0" height="30.4883" rx="2.5" ry="2.5" style="stroke:#181818;stroke-width:0.5;" width="41" x="5" y="424.2148"/><text fill="#000000" font-family="sans-serif" font-size="14" lengthAdjust="spacing" textLength="27" x="12" y="444.75">SDK</text><rect fill="#E2E2F0" height="30.4883" rx="2.5" ry="2.5" style="stroke:#181818;stroke-width:0.5;" width="88" x="162.5" y="25.3105"/><text fill="#000000" font-family="sans-serif" font-size="14" lengthAdjust="spacing" textLength="74" x="169.5" y="45.8457">ETHEREUM</text><rect fill="#E2E2F0" height="30.4883" rx="2.5" ry="2.5" style="stroke:#181818;stroke-width:0.5;" width="88" x="162.5" y="424.2148"/><text fill="#000000" font-family="sans-serif" font-size="14" lengthAdjust="spacing" textLength="74" x="169.5" y="444.75">ETHEREUM</text><rect fill="#E2E2F0" height="30.4883" rx="2.5" ry="2.5" style="stroke:#181818;stroke-width:0.5;" width="53" x="477" y="25.3105"/><text fill="#000000" font-family="sans-serif" font-size="14" lengthAdjust="spacing" textLength="39" x="484" y="45.8457">erc20</text><rect fill="#E2E2F0" height="30.4883" rx="2.5" ry="2.5" style="stroke:#181818;stroke-width:0.5;" width="53" x="477" y="424.2148"/><text fill="#000000" font-family="sans-serif" font-size="14" lengthAdjust="spacing" textLength="39" x="484" y="444.75">erc20</text><rect fill="#E2E2F0" height="30.4883" rx="2.5" ry="2.5" style="stroke:#181818;stroke-width:0.5;" width="110" x="593.5" y="25.3105"/><text fill="#000000" font-family="sans-serif" font-size="14" lengthAdjust="spacing" textLength="96" x="600.5" y="45.8457">erc20.balance</text><rect fill="#E2E2F0" height="30.4883" rx="2.5" ry="2.5" style="stroke:#181818;stroke-width:0.5;" width="110" x="593.5" y="424.2148"/><text fill="#000000" font-family="sans-serif" font-size="14" lengthAdjust="spacing" textLength="96" x="600.5" y="444.75">erc20.balance</text><rect fill="#E2E2F0" height="30.4883" rx="2.5" ry="2.5" style="stroke:#181818;stroke-width:0.5;" width="148" x="713.5" y="25.3105"/><text fill="#000000" font-family="sans-serif" font-size="14" lengthAdjust="spacing" textLength="134" x="720.5" y="45.8457">log.balance-history</text><rect fill="#E2E2F0" height="30.4883" rx="2.5" ry="2.5" style="stroke:#181818;stroke-width:0.5;" width="148" x="713.5" y="424.2148"/><text fill="#000000" font-family="sans-serif" font-size="14" lengthAdjust="spacing" textLength="134" x="720.5" y="444.75">log.balance-history</text><rect fill="#E2E2F0" height="30.4883" rx="2.5" ry="2.5" style="stroke:#181818;stroke-width:0.5;" width="65" x="886" y="25.3105"/><text fill="#000000" font-family="sans-serif" font-size="14" lengthAdjust="spacing" textLength="51" x="893" y="45.8457">listener</text><rect fill="#E2E2F0" height="30.4883" rx="2.5" ry="2.5" style="stroke:#181818;stroke-width:0.5;" width="65" x="886" y="424.2148"/><text fill="#000000" font-family="sans-serif" font-size="14" lengthAdjust="spacing" textLength="51" x="893" y="444.75">listener</text><rect fill="#E2E2F0" height="30.4883" rx="2.5" ry="2.5" style="stroke:#181818;stroke-width:0.5;" width="52" x="1119" y="25.3105"/><text fill="#000000" font-family="sans-serif" font-size="14" lengthAdjust="spacing" textLength="38" x="1126" y="45.8457">order</text><rect fill="#E2E2F0" height="30.4883" rx="2.5" ry="2.5" style="stroke:#181818;stroke-width:0.5;" width="52" x="1119" y="424.2148"/><text fill="#000000" font-family="sans-serif" font-size="14" lengthAdjust="spacing" textLength="38" x="1126" y="444.75">order</text><polygon fill="#181818" points="194.5,84.1094,204.5,88.1094,194.5,92.1094,198.5,88.1094" style="stroke:#181818;stroke-width:1.0;"/><line style="stroke:#181818;stroke-width:1.0;" x1="25.5" x2="200.5" y1="88.1094" y2="88.1094"/><text fill="#000000" font-family="sans-serif" font-size="13" lengthAdjust="spacing" textLength="157" x="32.5" y="83.3672">calling approve for erc20</text><polygon fill="#181818" points="491.5,113.4199,501.5,117.4199,491.5,121.4199,495.5,117.4199" style="stroke:#181818;stroke-width:1.0;"/><line style="stroke:#181818;stroke-width:1.0;" x1="206.5" x2="497.5" y1="117.4199" y2="117.4199"/><text fill="#000000" font-family="sans-serif" font-size="13" lengthAdjust="spacing" textLength="273" x="213.5" y="112.6777">approval event (get by blockchain-scanner)</text><polygon fill="#181818" points="775.5,142.7305,785.5,146.7305,775.5,150.7305,779.5,146.7305" style="stroke:#181818;stroke-width:1.0;"/><line style="stroke:#181818;stroke-width:1.0;" x1="503.5" x2="781.5" y1="146.7305" y2="146.7305"/><text fill="#000000" font-family="sans-serif" font-size="13" lengthAdjust="spacing" textLength="94" x="510.5" y="141.9883">kafka message</text><polygon fill="#181818" points="514.5,172.041,504.5,176.041,514.5,180.041,510.5,176.041" style="stroke:#181818;stroke-width:1.0;"/><line style="stroke:#181818;stroke-width:1.0;" x1="508.5" x2="786.5" y1="176.041" y2="176.041"/><text fill="#000000" font-family="sans-serif" font-size="13" lengthAdjust="spacing" textLength="94" x="520.5" y="171.2988">kafka message</text><polygon fill="#181818" points="636.5,201.3516,646.5,205.3516,636.5,209.3516,640.5,205.3516" style="stroke:#181818;stroke-width:1.0;"/><line style="stroke:#181818;stroke-width:1.0;" x1="503.5" x2="642.5" y1="205.3516" y2="205.3516"/><text fill="#000000" font-family="sans-serif" font-size="13" lengthAdjust="spacing" textLength="121" x="510.5" y="200.6094">allowance message</text><polygon fill="#181818" points="906.5,230.6621,916.5,234.6621,906.5,238.6621,910.5,234.6621" style="stroke:#181818;stroke-width:1.0;"/><line style="stroke:#181818;stroke-width:1.0;" x1="648.5" x2="912.5" y1="234.6621" y2="234.6621"/><text fill="#000000" font-family="sans-serif" font-size="13" lengthAdjust="spacing" textLength="121" x="655.5" y="229.9199">allowance message</text><polygon fill="#181818" points="1133,259.9727,1143,263.9727,1133,267.9727,1137,263.9727" style="stroke:#181818;stroke-width:1.0;"/><line style="stroke:#181818;stroke-width:1.0;" x1="918.5" x2="1139" y1="263.9727" y2="263.9727"/><text fill="#000000" font-family="sans-serif" font-size="13" lengthAdjust="spacing" textLength="114" x="925.5" y="259.2305">get existed orders</text><line style="stroke:#181818;stroke-width:1.0;" x1="918.5" x2="960.5" y1="293.2832" y2="293.2832"/><line style="stroke:#181818;stroke-width:1.0;" x1="960.5" x2="960.5" y1="293.2832" y2="306.2832"/><line style="stroke:#181818;stroke-width:1.0;" x1="919.5" x2="960.5" y1="306.2832" y2="306.2832"/><polygon fill="#181818" points="929.5,302.2832,919.5,306.2832,929.5,310.2832,925.5,306.2832" style="stroke:#181818;stroke-width:1.0;"/><text fill="#000000" font-family="sans-serif" font-size="13" lengthAdjust="spacing" textLength="154" x="925.5" y="288.541">get platform by operator</text><line style="stroke:#181818;stroke-width:1.0;" x1="918.5" x2="960.5" y1="335.5938" y2="335.5938"/><line style="stroke:#181818;stroke-width:1.0;" x1="960.5" x2="960.5" y1="335.5938" y2="348.5938"/><line style="stroke:#181818;stroke-width:1.0;" x1="919.5" x2="960.5" y1="348.5938" y2="348.5938"/><polygon fill="#181818" points="929.5,344.5938,919.5,348.5938,929.5,352.5938,925.5,348.5938" style="stroke:#181818;stroke-width:1.0;"/><text fill="#000000" font-family="sans-serif" font-size="13" lengthAdjust="spacing" textLength="114" x="925.5" y="330.8516">set order approval</text><polygon fill="#181818" points="217.5,373.9043,207.5,377.9043,217.5,381.9043,213.5,377.9043" style="stroke:#181818;stroke-width:1.0;"/><line style="stroke:#181818;stroke-width:1.0;" x1="211.5" x2="917.5" y1="377.9043" y2="377.9043"/><text fill="#000000" font-family="sans-serif" font-size="13" lengthAdjust="spacing" textLength="459" x="223.5" y="373.1621">check approval (it must be onchain due to no event after bid is accepted)</text><polygon fill="#181818" points="1133,403.2148,1143,407.2148,1133,411.2148,1137,407.2148" style="stroke:#181818;stroke-width:1.0;"/><line style="stroke:#181818;stroke-width:1.0;" x1="918.5" x2="1139" y1="407.2148" y2="407.2148"/><text fill="#000000" font-family="sans-serif" font-size="13" lengthAdjust="spacing" textLength="188" x="925.5" y="402.4727">saving orders with new status</text><!--SRC=[RPAxRiCm34LtVGNXAHbI51qzT6g00a5Ge8yFe6N65YoBWYGxoTzNKXwE0s-MT7Z9U-cVZnritc7x-xdztlxjIv2ejJ8DeBMEHu83Eo0dtrx5ZKbylYcl46gWaKo0LKC1gZDKccKdMrHcuoKQGsujSaKgBJGtBnLgD98shVA1tRc04ZeyT0WzUOyDYMLgwZod9_7yTIjCij4E7zDXadvYOfcE3IYEkSYB-siasTNaIaX6wPJkwykLdr4FUecq6aFCiK_Pi2M7qSqYNuAFU1QyPpi37_RKakoc1QnKW7xmCNu2DZbxg0U2m63ukXuyXAXIgHgK1vIIR1n_lMJFuvZ-WOipEAhGWg4Z-81Xy49KV89YbpPG28ikAAainWPFoSxVbXOgoDGGrQwINzcuCZMToCtBRqC-LUpPD3mdyz1tx1y0]--></g></svg>