<?xml version="1.0" encoding="us-ascii" standalone="no"?><svg xmlns="http://www.w3.org/2000/svg" xmlns:xlink="http://www.w3.org/1999/xlink" contentStyleType="text/css" height="542px" preserveAspectRatio="none" style="width:1135px;height:542px;background:#FFFFFF;" version="1.1" viewBox="0 0 1135 542" width="1135px" zoomAndPan="magnify"><defs/><g><g id="ACTIVE"><rect fill="#F1F1F1" height="78.8867" rx="12.5" ry="12.5" style="stroke:#181818;stroke-width:0.5;" width="128" x="480" y="302"/><line style="stroke:#181818;stroke-width:0.5;" x1="480" x2="608" y1="328.4883" y2="328.4883"/><text fill="#000000" font-family="sans-serif" font-size="14" lengthAdjust="spacing" textLength="50" x="519" y="320.5352">ACTIVE</text><text fill="#000000" font-family="sans-serif" font-size="12" lengthAdjust="spacing" textLength="75" x="485" y="345.0898">has approval</text><text fill="#000000" font-family="sans-serif" font-size="12" lengthAdjust="spacing" textLength="88" x="485" y="359.2227">makeStock &gt; 0</text><text fill="#000000" font-family="sans-serif" font-size="12" lengthAdjust="spacing" textLength="108" x="485" y="373.3555">makeStock &lt; filled</text></g><g id="FILLED"><rect fill="#F1F1F1" height="50.6211" rx="12.5" ry="12.5" style="stroke:#181818;stroke-width:0.5;" width="128" x="7" y="472.02"/><line style="stroke:#181818;stroke-width:0.5;" x1="7" x2="135" y1="498.5083" y2="498.5083"/><text fill="#000000" font-family="sans-serif" font-size="14" lengthAdjust="spacing" textLength="44" x="49" y="490.5552">FILLED</text><text fill="#000000" font-family="sans-serif" font-size="12" lengthAdjust="spacing" textLength="108" x="12" y="515.1098">makeStock = filled</text></g><g id="NOT_STARTED"><rect fill="#F1F1F1" height="50.6211" rx="12.5" ry="12.5" style="stroke:#181818;stroke-width:0.5;" width="120" x="690" y="138.69"/><line style="stroke:#181818;stroke-width:0.5;" x1="690" x2="810" y1="165.1783" y2="165.1783"/><text fill="#000000" font-family="sans-serif" font-size="14" lengthAdjust="spacing" textLength="100" x="700" y="157.2252">NOT_STARTED</text><text fill="#000000" font-family="sans-serif" font-size="12" lengthAdjust="spacing" textLength="67" x="695" y="181.7798">start &gt; now</text></g><g id="ENDED"><rect fill="#F1F1F1" height="50.6211" rx="12.5" ry="12.5" style="stroke:#181818;stroke-width:0.5;" width="83" x="170.5" y="472.02"/><line style="stroke:#181818;stroke-width:0.5;" x1="170.5" x2="253.5" y1="498.5083" y2="498.5083"/><text fill="#000000" font-family="sans-serif" font-size="14" lengthAdjust="spacing" textLength="46" x="189" y="490.5552">ENDED</text><text fill="#000000" font-family="sans-serif" font-size="12" lengthAdjust="spacing" textLength="63" x="175.5" y="515.1098">end &lt; now</text></g><g id="CANCELED"><rect fill="#F1F1F1" height="50.6211" rx="12.5" ry="12.5" style="stroke:#181818;stroke-width:0.5;" width="112" x="428" y="472.02"/><line style="stroke:#181818;stroke-width:0.5;" x1="428" x2="540" y1="498.5083" y2="498.5083"/><text fill="#000000" font-family="sans-serif" font-size="14" lengthAdjust="spacing" textLength="73" x="447.5" y="490.5552">CANCELED</text><text fill="#000000" font-family="sans-serif" font-size="12" lengthAdjust="spacing" textLength="92" x="433" y="515.1098">canceled = true</text></g><g id="INACTIVE"><rect fill="#F1F1F1" height="78.8867" rx="12.5" ry="12.5" style="stroke:#181818;stroke-width:0.5;" width="203" x="874.5" y="457.88"/><line style="stroke:#181818;stroke-width:0.5;" x1="874.5" x2="1077.5" y1="484.3683" y2="484.3683"/><text fill="#000000" font-family="sans-serif" font-size="14" lengthAdjust="spacing" textLength="64" x="944" y="476.4152">INACTIVE</text><text fill="#000000" font-family="sans-serif" font-size="12" lengthAdjust="spacing" textLength="159" x="879.5" y="500.9698">no approval for make asset</text><text fill="#000000" font-family="sans-serif" font-size="12" lengthAdjust="spacing" textLength="183" x="879.5" y="515.1027">or no ownership for make asset</text><text fill="#000000" font-family="sans-serif" font-size="12" lengthAdjust="spacing" textLength="104" x="879.5" y="529.2355">or makeStock = 0</text></g><ellipse cx="750" cy="16" fill="#181818" rx="10" ry="10" style="stroke:none;stroke-width:1.0;"/><!--link *start* to ACTIVE--><g id="link_*start*_ACTIVE"><path d="M740.34,19.79 C708.16,29.67 604.25,66.26 561,138 C532.07,185.98 532.5,252.37 536.99,295.85 " fill="none" id="*start*-to-ACTIVE" style="stroke:#181818;stroke-width:1.0;"/><polygon fill="#181818" points="537.62,300.56,540.6194,291.179,537.0772,295.5895,532.6667,292.0474,537.62,300.56" style="stroke:#181818;stroke-width:1.0;"/><text fill="#000000" font-family="sans-serif" font-size="13" lengthAdjust="spacing" textLength="75" x="579" y="151.5684">create order</text><path d="M566,160.3105 L566,185.3105 L667,185.3105 L667,170.3105 L657,160.3105 L566,160.3105 " fill="#FEFFDD" style="stroke:#181818;stroke-width:0.5;"/><path d="M657,160.3105 L657,170.3105 L667,170.3105 L657,160.3105 " fill="#FEFFDD" style="stroke:#181818;stroke-width:0.5;"/><text fill="#000000" font-family="sans-serif" font-size="13" lengthAdjust="spacing" textLength="80" x="572" y="177.8789">has approval</text></g><!--link *start* to NOT_STARTED--><g id="link_*start*_NOT_STARTED"><path d="M750,26.13 C750,47.02 750,99.07 750,132.62 " fill="none" id="*start*-to-NOT_STARTED" style="stroke:#181818;stroke-width:1.0;"/><polygon fill="#181818" points="750,137.25,754,128.25,750,132.25,746,128.25,750,137.25" style="stroke:#181818;stroke-width:1.0;"/><text fill="#000000" font-family="sans-serif" font-size="13" lengthAdjust="spacing" textLength="75" x="764.5" y="69.5684">create order</text><path d="M755,78.3105 L755,103.3105 L849,103.3105 L849,88.3105 L839,78.3105 L755,78.3105 " fill="#FEFFDD" style="stroke:#181818;stroke-width:0.5;"/><path d="M839,78.3105 L839,88.3105 L849,88.3105 L839,78.3105 " fill="#FEFFDD" style="stroke:#181818;stroke-width:0.5;"/><text fill="#000000" font-family="sans-serif" font-size="13" lengthAdjust="spacing" textLength="73" x="761" y="95.8789">start &gt; now</text></g><!--link *start* to INACTIVE--><g id="link_*start*_INACTIVE"><path d="M760.1,18.16 C781.21,21.06 830.61,30.31 862,56 C1003.84,172.06 1023.62,234.11 1072,410.88 C1076.52,427.41 1069.69,441.72 1057.91,453.64 " fill="none" id="*start*-to-INACTIVE" style="stroke:#181818;stroke-width:1.0;"/><polygon fill="#181818" points="1054.73,456.59,1064.0189,453.3163,1058.3643,453.156,1058.5245,447.5015,1054.73,456.59" style="stroke:#181818;stroke-width:1.0;"/><text fill="#000000" font-family="sans-serif" font-size="13" lengthAdjust="spacing" textLength="75" x="1043" y="233.5684">create order</text><path d="M1033,242.3105 L1033,267.3105 L1128,267.3105 L1128,252.3105 L1118,242.3105 L1033,242.3105 " fill="#FEFFDD" style="stroke:#181818;stroke-width:0.5;"/><path d="M1118,242.3105 L1118,252.3105 L1128,252.3105 L1118,242.3105 " fill="#FEFFDD" style="stroke:#181818;stroke-width:0.5;"/><text fill="#000000" font-family="sans-serif" font-size="13" lengthAdjust="spacing" textLength="74" x="1039" y="259.8789">no approval</text></g><!--link NOT_STARTED to ACTIVE--><g id="link_NOT_STARTED_ACTIVE"><path d="M720.92,189.76 C687.96,217.83 633.66,264.08 593.9,297.94 " fill="none" id="NOT_STARTED-to-ACTIVE" style="stroke:#181818;stroke-width:1.0;"/><polygon fill="#181818" points="590.61,301.6,600.0577,298.8179,594.4193,298.3613,594.8759,292.7229,590.61,301.6" style="stroke:#181818;stroke-width:1.0;"/><text fill="#000000" font-family="sans-serif" font-size="13" lengthAdjust="spacing" textLength="155" x="684" y="251.0684">activate by start/end job</text></g><!--link ACTIVE to INACTIVE--><g id="link_ACTIVE_INACTIVE"><path d="M608.31,379.55 C638.73,396 675.99,414.59 711,427.88 C761.58,447.09 819.59,462.75 868.42,474.22 " fill="none" id="ACTIVE-to-INACTIVE" style="stroke:#181818;stroke-width:1.0;"/><polygon fill="#181818" points="873.02,475.52,865.1715,469.5701,868.1522,474.378,863.3443,477.3586,873.02,475.52" style="stroke:#181818;stroke-width:1.0;"/><text fill="#000000" font-family="sans-serif" font-size="13" lengthAdjust="spacing" textLength="220" x="712" y="424.4484">remove approval or makeStock = 0</text></g><!--link INACTIVE to ACTIVE--><g id="link_INACTIVE_ACTIVE"><path d="M967.05,457.55 C961.22,440.75 951.84,422.34 937,410.88 C887.62,372.76 713.1,354.4 614.03,346.86 " fill="none" id="INACTIVE-to-ACTIVE" style="stroke:#181818;stroke-width:1.0;"/><polygon fill="#181818" points="609.21,346.43,617.888,351.0876,614.1962,346.8015,618.4823,343.1097,609.21,346.43" style="stroke:#181818;stroke-width:1.0;"/><text fill="#000000" font-family="sans-serif" font-size="13" lengthAdjust="spacing" textLength="110" x="953" y="424.4484">received approval</text></g><!--link ACTIVE to CANCELED--><g id="link_ACTIVE_CANCELED"><path d="M479.68,362.7 C457.03,373.27 434.01,388.76 421,410.88 C409.19,430.97 424.41,452.06 442.85,468.26 " fill="none" id="ACTIVE-to-CANCELED" style="stroke:#181818;stroke-width:1.0;"/><polygon fill="#181818" points="446.08,471.85,441.8141,462.9729,442.2707,468.6113,436.6323,469.0679,446.08,471.85" style="stroke:#181818;stroke-width:1.0;"/><text fill="#000000" font-family="sans-serif" font-size="13" lengthAdjust="spacing" textLength="78" x="422" y="424.4484">cancel event</text></g><!--link ACTIVE to CANCELED--><g id="link_ACTIVE_CANCELED"><path d="M528.86,381.27 C518.53,407.76 505.06,442.31 495.59,466.61 " fill="none" id="ACTIVE-to-CANCELED-1" style="stroke:#181818;stroke-width:1.0;"/><polygon fill="#181818" points="493.51,470.94,500.5041,464.0059,495.325,466.2811,493.0498,461.1019,493.51,470.94" style="stroke:#181818;stroke-width:1.0;"/><text fill="#000000" font-family="sans-serif" font-size="13" lengthAdjust="spacing" textLength="128" x="517" y="424.4484">cancel via admin api</text></g><!--link ACTIVE to ACTIVE--><g id="link_ACTIVE_ACTIVE"><path d="M608.27,326.85 C627.76,327.21 643,332.08 643,341.44 C643,349.85 630.7,354.63 614.07,355.78 " fill="none" id="ACTIVE-to-ACTIVE" style="stroke:#181818;stroke-width:1.0;"/><polygon fill="#181818" points="609.27,356.03,618.4335,359.6398,614.2654,355.8153,618.0899,351.6472,609.27,356.03" style="stroke:#181818;stroke-width:1.0;"/><text fill="#000000" font-family="sans-serif" font-size="13" lengthAdjust="spacing" textLength="77" x="649" y="346.5084">match event</text></g><!--link ACTIVE to FILLED--><g id="link_ACTIVE_FILLED"><path d="M479.73,347.69 C380.51,356.72 195.58,377.5 139,410.88 C116.57,424.12 98.63,447.75 86.83,466.81 " fill="none" id="ACTIVE-to-FILLED" style="stroke:#181818;stroke-width:1.0;"/><polygon fill="#181818" points="83.96,470.55,92.0563,464.942,86.5597,466.279,85.2227,460.7824,83.96,470.55" style="stroke:#181818;stroke-width:1.0;"/><text fill="#000000" font-family="sans-serif" font-size="13" lengthAdjust="spacing" textLength="77" x="140" y="424.4484">match event</text></g><!--link ACTIVE to ENDED--><g id="link_ACTIVE_ENDED"><path d="M479.67,349.09 C400.3,358.57 271.57,378.5 237,410.88 C221.87,425.06 215.73,447.83 213.32,466.31 " fill="none" id="ACTIVE-to-ENDED" style="stroke:#181818;stroke-width:1.0;"/><polygon fill="#181818" points="212.68,470.89,217.6816,462.4056,213.251,465.9227,209.7339,461.4921,212.68,470.89" style="stroke:#181818;stroke-width:1.0;"/><text fill="#000000" font-family="sans-serif" font-size="13" lengthAdjust="spacing" textLength="170" x="238" y="424.4484">deactivate by start/end job</text></g><!--SRC=[XLBBQiCm4BphA_PS2Csvj07Zk608BZIcbrBAHjvWrRPaPDMXVr_9hyXEczp4pcXsTdQ3C8tVeWV8iG6iQwrQB5am52iiQ6yKBs03wp-gZt0KPKaPUuvtksZhGqyZbBoad_iqU4qTtXZKnef9TM9HidKbafdLSOKmICAea-4eETdFLiNeRs9nClQMQd89HwMxXe1DGyOZsRhbgPCatUIYlahq7QyPUx_xWDLg0pq3h1LDQCWoCz9CAlUKK0fPC9XdvkPm-2JX3Nv3nq_bGcPqUqF32-QiuLkOJONSYDPf7NxwxlVkpvSw34jUTjPKgPREqLy4vtqRrmZZ7e5QakOwfHK8c5L2sXx2fquMAZGy7wGcPpE69awYjLUpkEEErL_eGiV3kskqS4R_P_CB]--></g></svg>