<?xml version="1.0" encoding="us-ascii" standalone="no"?><svg xmlns="http://www.w3.org/2000/svg" xmlns:xlink="http://www.w3.org/1999/xlink" contentStyleType="text/css" height="542px" preserveAspectRatio="none" style="width:1419px;height:542px;background:#FFFFFF;" version="1.1" viewBox="0 0 1419 542" width="1419px" zoomAndPan="magnify"><defs/><g><g id="ACTIVE"><rect fill="#F1F1F1" height="78.8867" rx="12.5" ry="12.5" style="stroke:#181818;stroke-width:0.5;" width="128" x="662" y="302"/><line style="stroke:#181818;stroke-width:0.5;" x1="662" x2="790" y1="328.4883" y2="328.4883"/><text fill="#000000" font-family="sans-serif" font-size="14" lengthAdjust="spacing" textLength="50" x="701" y="320.5352">ACTIVE</text><text fill="#000000" font-family="sans-serif" font-size="12" lengthAdjust="spacing" textLength="75" x="667" y="345.0898">has approval</text><text fill="#000000" font-family="sans-serif" font-size="12" lengthAdjust="spacing" textLength="88" x="667" y="359.2227">makeStock &gt; 0</text><text fill="#000000" font-family="sans-serif" font-size="12" lengthAdjust="spacing" textLength="108" x="667" y="373.3555">makeStock &lt; filled</text></g><g id="FILLED"><rect fill="#F1F1F1" height="50.6211" rx="12.5" ry="12.5" style="stroke:#181818;stroke-width:0.5;" width="128" x="7" y="472.02"/><line style="stroke:#181818;stroke-width:0.5;" x1="7" x2="135" y1="498.5083" y2="498.5083"/><text fill="#000000" font-family="sans-serif" font-size="14" lengthAdjust="spacing" textLength="44" x="49" y="490.5552">FILLED</text><text fill="#000000" font-family="sans-serif" font-size="12" lengthAdjust="spacing" textLength="108" x="12" y="515.1098">makeStock = filled</text></g><g id="NOT_STARTED"><rect fill="#F1F1F1" height="50.6211" rx="12.5" ry="12.5" style="stroke:#181818;stroke-width:0.5;" width="120" x="872" y="138.69"/><line style="stroke:#181818;stroke-width:0.5;" x1="872" x2="992" y1="165.1783" y2="165.1783"/><text fill="#000000" font-family="sans-serif" font-size="14" lengthAdjust="spacing" textLength="100" x="882" y="157.2252">NOT_STARTED</text><text fill="#000000" font-family="sans-serif" font-size="12" lengthAdjust="spacing" textLength="67" x="877" y="181.7798">start &gt; now</text></g><g id="ENDED"><rect fill="#F1F1F1" height="50.6211" rx="12.5" ry="12.5" style="stroke:#181818;stroke-width:0.5;" width="83" x="170.5" y="472.02"/><line style="stroke:#181818;stroke-width:0.5;" x1="170.5" x2="253.5" y1="498.5083" y2="498.5083"/><text fill="#000000" font-family="sans-serif" font-size="14" lengthAdjust="spacing" textLength="46" x="189" y="490.5552">ENDED</text><text fill="#000000" font-family="sans-serif" font-size="12" lengthAdjust="spacing" textLength="63" x="175.5" y="515.1098">end &lt; now</text></g><g id="CANCELED"><rect fill="#F1F1F1" height="50.6211" rx="12.5" ry="12.5" style="stroke:#181818;stroke-width:0.5;" width="112" x="538" y="472.02"/><line style="stroke:#181818;stroke-width:0.5;" x1="538" x2="650" y1="498.5083" y2="498.5083"/><text fill="#000000" font-family="sans-serif" font-size="14" lengthAdjust="spacing" textLength="73" x="557.5" y="490.5552">CANCELED</text><text fill="#000000" font-family="sans-serif" font-size="12" lengthAdjust="spacing" textLength="92" x="543" y="515.1098">canceled = true</text></g><g id="INACTIVE"><rect fill="#F1F1F1" height="78.8867" rx="12.5" ry="12.5" style="stroke:#181818;stroke-width:0.5;" width="203" x="1188.5" y="457.88"/><line style="stroke:#181818;stroke-width:0.5;" x1="1188.5" x2="1391.5" y1="484.3683" y2="484.3683"/><text fill="#000000" font-family="sans-serif" font-size="14" lengthAdjust="spacing" textLength="64" x="1258" y="476.4152">INACTIVE</text><text fill="#000000" font-family="sans-serif" font-size="12" lengthAdjust="spacing" textLength="159" x="1193.5" y="500.9698">no approval for make asset</text><text fill="#000000" font-family="sans-serif" font-size="12" lengthAdjust="spacing" textLength="183" x="1193.5" y="515.1027">or no ownership for make asset</text><text fill="#000000" font-family="sans-serif" font-size="12" lengthAdjust="spacing" textLength="104" x="1193.5" y="529.2355">or makeStock = 0</text></g><ellipse cx="932" cy="16" fill="#181818" rx="10" ry="10" style="stroke:none;stroke-width:1.0;"/><!--link *start* to ACTIVE--><g id="link_*start*_ACTIVE"><path d="M922.34,19.79 C890.16,29.67 786.25,66.26 743,138 C714.07,185.98 714.5,252.37 718.99,295.85 " fill="none" id="*start*-to-ACTIVE" style="stroke:#181818;stroke-width:1.0;"/><polygon fill="#181818" points="719.62,300.56,722.6194,291.179,719.0772,295.5895,714.6667,292.0474,719.62,300.56" style="stroke:#181818;stroke-width:1.0;"/><text fill="#000000" font-family="sans-serif" font-size="13" lengthAdjust="spacing" textLength="75" x="761" y="151.5684">create order</text><path d="M748,160.3105 L748,185.3105 L849,185.3105 L849,170.3105 L839,160.3105 L748,160.3105 " fill="#FEFFDD" style="stroke:#181818;stroke-width:0.5;"/><path d="M839,160.3105 L839,170.3105 L849,170.3105 L839,160.3105 " fill="#FEFFDD" style="stroke:#181818;stroke-width:0.5;"/><text fill="#000000" font-family="sans-serif" font-size="13" lengthAdjust="spacing" textLength="80" x="754" y="177.8789">has approval</text></g><!--link *start* to NOT_STARTED--><g id="link_*start*_NOT_STARTED"><path d="M932,26.13 C932,47.02 932,99.07 932,132.62 " fill="none" id="*start*-to-NOT_STARTED" style="stroke:#181818;stroke-width:1.0;"/><polygon fill="#181818" points="932,137.25,936,128.25,932,132.25,928,128.25,932,137.25" style="stroke:#181818;stroke-width:1.0;"/><text fill="#000000" font-family="sans-serif" font-size="13" lengthAdjust="spacing" textLength="75" x="946.5" y="69.5684">create order</text><path d="M937,78.3105 L937,103.3105 L1031,103.3105 L1031,88.3105 L1021,78.3105 L937,78.3105 " fill="#FEFFDD" style="stroke:#181818;stroke-width:0.5;"/><path d="M1021,78.3105 L1021,88.3105 L1031,88.3105 L1021,78.3105 " fill="#FEFFDD" style="stroke:#181818;stroke-width:0.5;"/><text fill="#000000" font-family="sans-serif" font-size="13" lengthAdjust="spacing" textLength="73" x="943" y="95.8789">start &gt; now</text></g><!--link *start* to INACTIVE--><g id="link_*start*_INACTIVE"><path d="M941.97,18.83 C962.42,22.94 1010.01,34.24 1044,56 C1228.48,174.11 1304.05,207.74 1386,410.88 C1392.56,427.15 1386.04,441.48 1373.85,453.54 " fill="none" id="*start*-to-INACTIVE" style="stroke:#181818;stroke-width:1.0;"/><polygon fill="#181818" points="1370.51,456.54,1379.8312,453.3596,1374.1785,453.1427,1374.3955,447.49,1370.51,456.54" style="stroke:#181818;stroke-width:1.0;"/><text fill="#000000" font-family="sans-serif" font-size="13" lengthAdjust="spacing" textLength="75" x="1327" y="233.5684">create order</text><path d="M1317,242.3105 L1317,267.3105 L1412,267.3105 L1412,252.3105 L1402,242.3105 L1317,242.3105 " fill="#FEFFDD" style="stroke:#181818;stroke-width:0.5;"/><path d="M1402,242.3105 L1402,252.3105 L1412,252.3105 L1402,242.3105 " fill="#FEFFDD" style="stroke:#181818;stroke-width:0.5;"/><text fill="#000000" font-family="sans-serif" font-size="13" lengthAdjust="spacing" textLength="74" x="1323" y="259.8789">no approval</text></g><!--link NOT_STARTED to ACTIVE--><g id="link_NOT_STARTED_ACTIVE"><path d="M902.92,189.76 C869.96,217.83 815.66,264.08 775.9,297.94 " fill="none" id="NOT_STARTED-to-ACTIVE" style="stroke:#181818;stroke-width:1.0;"/><polygon fill="#181818" points="772.61,301.6,782.0577,298.8179,776.4193,298.3613,776.8759,292.7229,772.61,301.6" style="stroke:#181818;stroke-width:1.0;"/><text fill="#000000" font-family="sans-serif" font-size="13" lengthAdjust="spacing" textLength="155" x="866" y="251.0684">activate by start/end job</text></g><!--link ACTIVE to INACTIVE--><g id="link_ACTIVE_INACTIVE"><path d="M790.32,361.33 C850.78,378.97 943.86,405.82 1025,427.88 C1076.77,441.96 1134.41,456.93 1182.69,469.27 " fill="none" id="ACTIVE-to-INACTIVE" style="stroke:#181818;stroke-width:1.0;"/><polygon fill="#181818" points="1187.22,470.69,1179.4799,464.5997,1182.3735,469.4605,1177.5127,472.3541,1187.22,470.69" style="stroke:#181818;stroke-width:1.0;"/><text fill="#000000" font-family="sans-serif" font-size="13" lengthAdjust="spacing" textLength="220" x="1026" y="424.4484">remove approval or makeStock = 0</text></g><!--link INACTIVE to ACTIVE--><g id="link_INACTIVE_ACTIVE"><path d="M1281.42,457.7 C1275.65,440.72 1266.22,422.12 1251,410.88 C1180.31,358.68 922.32,346.27 796.27,343.34 " fill="none" id="INACTIVE-to-ACTIVE" style="stroke:#181818;stroke-width:1.0;"/><polygon fill="#181818" points="791.37,343.21,800.2762,347.4146,796.3687,343.3243,800.4591,339.4167,791.37,343.21" style="stroke:#181818;stroke-width:1.0;"/><text fill="#000000" font-family="sans-serif" font-size="13" lengthAdjust="spacing" textLength="110" x="1267" y="424.4484">received approval</text></g><!--link ACTIVE to CANCELED--><g id="link_ACTIVE_CANCELED"><path d="M661.6,347.63 C581.18,355.6 450.55,373.97 421,410.88 C386.25,454.29 469.3,477.33 531.99,488.17 " fill="none" id="ACTIVE-to-CANCELED" style="stroke:#181818;stroke-width:1.0;"/><polygon fill="#181818" points="536.61,489.11,528.3977,483.6733,531.6792,488.2811,527.0714,491.5625,536.61,489.11" style="stroke:#181818;stroke-width:1.0;"/><text fill="#000000" font-family="sans-serif" font-size="13" lengthAdjust="spacing" textLength="128" x="422" y="424.4484">cancel event by user</text></g><!--link ACTIVE to CANCELED--><g id="link_ACTIVE_CANCELED"><path d="M661.59,358.83 C634.91,369.14 606.61,385.47 591,410.88 C581.02,427.13 581.81,448.59 585.08,465.94 " fill="none" id="ACTIVE-to-CANCELED-1" style="stroke:#181818;stroke-width:1.0;"/><polygon fill="#181818" points="586.27,470.65,588.3571,461.0248,585.2537,465.7544,580.5241,462.651,586.27,470.65" style="stroke:#181818;stroke-width:1.0;"/><text fill="#000000" font-family="sans-serif" font-size="13" lengthAdjust="spacing" textLength="222" x="592" y="424.4484">cancel event from kafka by balance</text></g><!--link ACTIVE to CANCELED--><g id="link_ACTIVE_CANCELED"><path d="M790.43,371.46 C815.37,386.82 834.6,406.83 819,427.88 C799.45,454.26 715.68,474.51 656.08,485.92 " fill="none" id="ACTIVE-to-CANCELED-2" style="stroke:#181818;stroke-width:1.0;"/><polygon fill="#181818" points="651.39,486.99,660.9762,489.2494,656.3031,486.0617,659.4908,481.3885,651.39,486.99" style="stroke:#181818;stroke-width:1.0;"/><text fill="#000000" font-family="sans-serif" font-size="13" lengthAdjust="spacing" textLength="128" x="825" y="424.4484">cancel via admin api</text></g><!--link ACTIVE to ACTIVE--><g id="link_ACTIVE_ACTIVE"><path d="M790.27,326.85 C809.76,327.21 825,332.08 825,341.44 C825,349.85 812.7,354.63 796.07,355.78 " fill="none" id="ACTIVE-to-ACTIVE" style="stroke:#181818;stroke-width:1.0;"/><polygon fill="#181818" points="791.27,356.03,800.4335,359.6398,796.2654,355.8153,800.0899,351.6472,791.27,356.03" style="stroke:#181818;stroke-width:1.0;"/><text fill="#000000" font-family="sans-serif" font-size="13" lengthAdjust="spacing" textLength="77" x="831" y="346.5084">match event</text></g><!--link ACTIVE to FILLED--><g id="link_ACTIVE_FILLED"><path d="M661.63,343.56 C527.56,346.9 223.49,360.03 135,410.88 C112.78,423.65 95.89,447.56 85.06,466.84 " fill="none" id="ACTIVE-to-FILLED" style="stroke:#181818;stroke-width:1.0;"/><polygon fill="#181818" points="82.43,470.64,90.2594,464.6651,84.8303,466.2538,83.2415,460.8246,82.43,470.64" style="stroke:#181818;stroke-width:1.0;"/><text fill="#000000" font-family="sans-serif" font-size="13" lengthAdjust="spacing" textLength="77" x="136" y="424.4484">match event</text></g><!--link ACTIVE to ENDED--><g id="link_ACTIVE_ENDED"><path d="M661.64,342.78 C542.92,344.77 295.94,355.62 234,410.88 C218.67,424.56 213.36,447.36 211.79,465.97 " fill="none" id="ACTIVE-to-ENDED" style="stroke:#181818;stroke-width:1.0;"/><polygon fill="#181818" points="211.41,470.59,215.9932,461.8725,211.7388,465.6008,208.0105,461.3464,211.41,470.59" style="stroke:#181818;stroke-width:1.0;"/><text fill="#000000" font-family="sans-serif" font-size="13" lengthAdjust="spacing" textLength="170" x="235" y="424.4484">deactivate by start/end job</text></g><!--SRC=[ZLF1QeD04BtlLyov49fpQGDYB0Z1GYEzb5967N6hxigwCVJlkwlHhAPDUfDvRzwyUJjwVXo-1GzGO0lOD4fsM37lLAonfBsMQGaRMFzIVOISLnLbx3dSxOAj2psDKFGIV-vZxpMsUAjHQICcv945qTQMI6H6nnPyB_A3NYP5aP9fDYfQ7OY5qJXRoCabv5Br0m7RbhH3CdN3aqT1gYruSvNeEbupzdxt0QlL1WO662kAK9DXPgIOaFPJGCL5oM2UcTt3ufE4i_WD7JUL2vdHxGqD9vYpXcjXjXMccdTMA_aUfj_RdY-Pd1vvELbHBJiwHtyHdDCsFYECxmZKaT1srA4rnlz1pPMieSIyHDkLO6N1wuqTHy2iviAOv2vrsg56dHR3WEa4vWn5AV7EdDtYH-XPmualT1oyFsS3P_Htk3y0]--></g></svg>