<?xml version="1.0" encoding="us-ascii" standalone="no"?><svg xmlns="http://www.w3.org/2000/svg" xmlns:xlink="http://www.w3.org/1999/xlink" contentStyleType="text/css" height="572px" preserveAspectRatio="none" style="width:1135px;height:572px;background:#FFFFFF;" version="1.1" viewBox="0 0 1135 572" width="1135px" zoomAndPan="magnify"><defs/><g><g id="ACTIVE"><rect fill="#F1F1F1" height="78.8867" rx="12.5" ry="12.5" style="stroke:#181818;stroke-width:0.5;" width="128" x="461" y="302"/><line style="stroke:#181818;stroke-width:0.5;" x1="461" x2="589" y1="328.4883" y2="328.4883"/><text fill="#000000" font-family="sans-serif" font-size="14" lengthAdjust="spacing" textLength="50" x="500" y="320.5352">ACTIVE</text><text fill="#000000" font-family="sans-serif" font-size="12" lengthAdjust="spacing" textLength="75" x="466" y="345.0898">has approval</text><text fill="#000000" font-family="sans-serif" font-size="12" lengthAdjust="spacing" textLength="88" x="466" y="359.2227">makeStock &gt; 0</text><text fill="#000000" font-family="sans-serif" font-size="12" lengthAdjust="spacing" textLength="108" x="466" y="373.3555">makeStock &lt; filled</text></g><g id="FILLED"><rect fill="#F1F1F1" height="50.6211" rx="12.5" ry="12.5" style="stroke:#181818;stroke-width:0.5;" width="128" x="7" y="502.02"/><line style="stroke:#181818;stroke-width:0.5;" x1="7" x2="135" y1="528.5083" y2="528.5083"/><text fill="#000000" font-family="sans-serif" font-size="14" lengthAdjust="spacing" textLength="44" x="49" y="520.5552">FILLED</text><text fill="#000000" font-family="sans-serif" font-size="12" lengthAdjust="spacing" textLength="108" x="12" y="545.1098">makeStock = filled</text></g><g id="NOT_STARTED"><rect fill="#F1F1F1" height="50.6211" rx="12.5" ry="12.5" style="stroke:#181818;stroke-width:0.5;" width="120" x="671" y="138.69"/><line style="stroke:#181818;stroke-width:0.5;" x1="671" x2="791" y1="165.1783" y2="165.1783"/><text fill="#000000" font-family="sans-serif" font-size="14" lengthAdjust="spacing" textLength="100" x="681" y="157.2252">NOT_STARTED</text><text fill="#000000" font-family="sans-serif" font-size="12" lengthAdjust="spacing" textLength="67" x="676" y="181.7798">start &gt; now</text></g><g id="ENDED"><rect fill="#F1F1F1" height="50.6211" rx="12.5" ry="12.5" style="stroke:#181818;stroke-width:0.5;" width="83" x="170.5" y="502.02"/><line style="stroke:#181818;stroke-width:0.5;" x1="170.5" x2="253.5" y1="528.5083" y2="528.5083"/><text fill="#000000" font-family="sans-serif" font-size="14" lengthAdjust="spacing" textLength="46" x="189" y="520.5552">ENDED</text><text fill="#000000" font-family="sans-serif" font-size="12" lengthAdjust="spacing" textLength="63" x="175.5" y="545.1098">end &lt; now</text></g><g id="CANCELED"><rect fill="#F1F1F1" height="50.6211" rx="12.5" ry="12.5" style="stroke:#181818;stroke-width:0.5;" width="112" x="368" y="502.02"/><line style="stroke:#181818;stroke-width:0.5;" x1="368" x2="480" y1="528.5083" y2="528.5083"/><text fill="#000000" font-family="sans-serif" font-size="14" lengthAdjust="spacing" textLength="73" x="387.5" y="520.5552">CANCELED</text><text fill="#000000" font-family="sans-serif" font-size="12" lengthAdjust="spacing" textLength="92" x="373" y="545.1098">canceled = true</text></g><g id="INACTIVE"><rect fill="#F1F1F1" height="78.8867" rx="12.5" ry="12.5" style="stroke:#181818;stroke-width:0.5;" width="203" x="779.5" y="487.88"/><line style="stroke:#181818;stroke-width:0.5;" x1="779.5" x2="982.5" y1="514.3683" y2="514.3683"/><text fill="#000000" font-family="sans-serif" font-size="14" lengthAdjust="spacing" textLength="64" x="849" y="506.4152">INACTIVE</text><text fill="#000000" font-family="sans-serif" font-size="12" lengthAdjust="spacing" textLength="159" x="784.5" y="530.9698">no approval for make asset</text><text fill="#000000" font-family="sans-serif" font-size="12" lengthAdjust="spacing" textLength="183" x="784.5" y="545.1027">or no ownership for make asset</text><text fill="#000000" font-family="sans-serif" font-size="12" lengthAdjust="spacing" textLength="104" x="784.5" y="559.2355">or makeStock = 0</text></g><ellipse cx="731" cy="16" fill="#181818" rx="10" ry="10" style="stroke:none;stroke-width:1.0;"/><!--link *start* to ACTIVE--><g id="link_*start*_ACTIVE"><path d="M721.34,19.79 C689.16,29.67 585.25,66.26 542,138 C513.07,185.98 513.5,252.37 517.99,295.85 " fill="none" id="*start*-to-ACTIVE" style="stroke:#181818;stroke-width:1.0;"/><polygon fill="#181818" points="518.62,300.56,521.6194,291.179,518.0772,295.5895,513.6667,292.0474,518.62,300.56" style="stroke:#181818;stroke-width:1.0;"/><text fill="#000000" font-family="sans-serif" font-size="13" lengthAdjust="spacing" textLength="75" x="560" y="151.5684">create order</text><path d="M547,160.3105 L547,185.3105 L648,185.3105 L648,170.3105 L638,160.3105 L547,160.3105 " fill="#FEFFDD" style="stroke:#181818;stroke-width:0.5;"/><path d="M638,160.3105 L638,170.3105 L648,170.3105 L638,160.3105 " fill="#FEFFDD" style="stroke:#181818;stroke-width:0.5;"/><text fill="#000000" font-family="sans-serif" font-size="13" lengthAdjust="spacing" textLength="80" x="553" y="177.8789">has approval</text></g><!--link *start* to NOT_STARTED--><g id="link_*start*_NOT_STARTED"><path d="M731,26.13 C731,47.02 731,99.07 731,132.62 " fill="none" id="*start*-to-NOT_STARTED" style="stroke:#181818;stroke-width:1.0;"/><polygon fill="#181818" points="731,137.25,735,128.25,731,132.25,727,128.25,731,137.25" style="stroke:#181818;stroke-width:1.0;"/><text fill="#000000" font-family="sans-serif" font-size="13" lengthAdjust="spacing" textLength="75" x="745.5" y="69.5684">create order</text><path d="M736,78.3105 L736,103.3105 L830,103.3105 L830,88.3105 L820,78.3105 L736,78.3105 " fill="#FEFFDD" style="stroke:#181818;stroke-width:0.5;"/><path d="M820,78.3105 L820,88.3105 L830,88.3105 L820,78.3105 " fill="#FEFFDD" style="stroke:#181818;stroke-width:0.5;"/><text fill="#000000" font-family="sans-serif" font-size="13" lengthAdjust="spacing" textLength="73" x="742" y="95.8789">start &gt; now</text></g><!--link *start* to INACTIVE--><g id="link_*start*_INACTIVE"><path d="M741,18.29 C761.92,21.42 810.99,31.08 843,56 C992.08,172.05 1022.71,229.92 1077,410.88 C1083,430.89 1089.09,440.85 1077,457.88 C1056.3,487.03 1022.22,503.87 988.23,513.56 " fill="none" id="*start*-to-INACTIVE" style="stroke:#181818;stroke-width:1.0;"/><polygon fill="#181818" points="983.77,515.05,993.5087,516.5191,988.5908,513.7236,991.3864,508.8057,983.77,515.05" style="stroke:#181818;stroke-width:1.0;"/><text fill="#000000" font-family="sans-serif" font-size="13" lengthAdjust="spacing" textLength="75" x="1043" y="233.5684">create order</text><path d="M1033,242.3105 L1033,267.3105 L1128,267.3105 L1128,252.3105 L1118,242.3105 L1033,242.3105 " fill="#FEFFDD" style="stroke:#181818;stroke-width:0.5;"/><path d="M1118,242.3105 L1118,252.3105 L1128,252.3105 L1118,242.3105 " fill="#FEFFDD" style="stroke:#181818;stroke-width:0.5;"/><text fill="#000000" font-family="sans-serif" font-size="13" lengthAdjust="spacing" textLength="74" x="1039" y="259.8789">no approval</text></g><!--link NOT_STARTED to ACTIVE--><g id="link_NOT_STARTED_ACTIVE"><path d="M701.92,189.76 C668.96,217.83 614.66,264.08 574.9,297.94 " fill="none" id="NOT_STARTED-to-ACTIVE" style="stroke:#181818;stroke-width:1.0;"/><polygon fill="#181818" points="571.61,301.6,581.0577,298.8179,575.4193,298.3613,575.8759,292.7229,571.61,301.6" style="stroke:#181818;stroke-width:1.0;"/><text fill="#000000" font-family="sans-serif" font-size="13" lengthAdjust="spacing" textLength="155" x="665" y="251.0684">activate by start/end job</text></g><!--link ACTIVE to INACTIVE--><g id="link_ACTIVE_INACTIVE"><path d="M560.35,381.09 C568.89,390.7 577.89,401.07 586,410.88 C602.77,431.16 600.1,443.29 622,457.88 C666.81,487.74 724.07,504.59 773.35,514.09 " fill="none" id="ACTIVE-to-INACTIVE" style="stroke:#181818;stroke-width:1.0;"/><polygon fill="#181818" points="778.01,515.16,769.8935,509.5813,773.0943,514.2455,768.4302,517.4463,778.01,515.16" style="stroke:#181818;stroke-width:1.0;"/><text fill="#000000" font-family="sans-serif" font-size="13" lengthAdjust="spacing" textLength="104" x="678" y="431.9484">remove approval</text><text fill="#000000" font-family="sans-serif" font-size="13" lengthAdjust="spacing" textLength="210" x="627" y="447.2589">or balance event (makeStock = 0)</text></g><!--link INACTIVE to ACTIVE--><g id="link_INACTIVE_ACTIVE"><path d="M877.61,487.47 C873.34,462.12 863.7,430.26 842,410.88 C806.16,378.89 677.24,359.14 595.26,349.52 " fill="none" id="INACTIVE-to-ACTIVE" style="stroke:#181818;stroke-width:1.0;"/><polygon fill="#181818" points="590.44,348.85,598.9102,353.8756,595.4057,349.435,599.8462,345.9305,590.44,348.85" style="stroke:#181818;stroke-width:1.0;"/><text fill="#000000" font-family="sans-serif" font-size="13" lengthAdjust="spacing" textLength="110" x="914.5" y="431.9484">received approval</text><text fill="#000000" font-family="sans-serif" font-size="13" lengthAdjust="spacing" textLength="193" x="875" y="447.2589">balance event (makeStock &gt; 0)</text></g><!--link ACTIVE to CANCELED--><g id="link_ACTIVE_CANCELED"><path d="M460.54,370.9 C444.79,381.12 429.92,394.33 421,410.88 C406.91,437.03 410.13,471.56 415.34,496.03 " fill="none" id="ACTIVE-to-CANCELED" style="stroke:#181818;stroke-width:1.0;"/><polygon fill="#181818" points="416.63,500.71,418.5494,491.05,415.5287,495.8328,410.7459,492.8121,416.63,500.71" style="stroke:#181818;stroke-width:1.0;"/><text fill="#000000" font-family="sans-serif" font-size="13" lengthAdjust="spacing" textLength="128" x="437.5" y="424.4484">cancel event by user</text><text fill="#000000" font-family="sans-serif" font-size="13" lengthAdjust="spacing" textLength="159" x="422" y="439.7589">or cancel by reservoir job</text><text fill="#000000" font-family="sans-serif" font-size="13" lengthAdjust="spacing" textLength="142" x="430.5" y="455.0695">or cancel by admin api</text></g><!--link ACTIVE to ACTIVE--><g id="link_ACTIVE_ACTIVE"><path d="M589.27,324.04 C608.76,324.48 624,330.28 624,341.44 C624,351.47 611.7,357.17 595.07,358.54 " fill="none" id="ACTIVE-to-ACTIVE" style="stroke:#181818;stroke-width:1.0;"/><polygon fill="#181818" points="590.27,358.84,599.4636,362.3725,595.2634,358.5832,599.0527,354.383,590.27,358.84" style="stroke:#181818;stroke-width:1.0;"/><text fill="#000000" font-family="sans-serif" font-size="13" lengthAdjust="spacing" textLength="161" x="630" y="346.5084">match event (partial case)</text></g><!--link ACTIVE to FILLED--><g id="link_ACTIVE_FILLED"><path d="M460.73,346.19 C361.15,353.17 175.68,371.21 124,410.88 C96.89,431.7 83.18,469.62 76.58,496.31 " fill="none" id="ACTIVE-to-FILLED" style="stroke:#181818;stroke-width:1.0;"/><polygon fill="#181818" points="75.28,500.82,81.2517,492.9881,76.4355,495.9554,73.4682,491.1392,75.28,500.82" style="stroke:#181818;stroke-width:1.0;"/><text fill="#000000" font-family="sans-serif" font-size="13" lengthAdjust="spacing" textLength="77" x="125" y="439.4484">match event</text></g><!--link ACTIVE to ENDED--><g id="link_ACTIVE_ENDED"><path d="M460.76,349.09 C383.93,358.4 261.81,377.99 231,410.88 C209.83,433.49 207.14,470.12 208.42,496.05 " fill="none" id="ACTIVE-to-ENDED" style="stroke:#181818;stroke-width:1.0;"/><polygon fill="#181818" points="208.78,500.73,212.2322,491.506,208.4797,495.739,204.2467,491.9865,208.78,500.73" style="stroke:#181818;stroke-width:1.0;"/><text fill="#000000" font-family="sans-serif" font-size="13" lengthAdjust="spacing" textLength="170" x="232" y="439.4484">deactivate by start/end job</text></g><!--SRC=[XLB1QiCm3BtxAtHS1sKzZwqGsWm29OCrxBAEuJegyPBOmNPJzlUJsoHpkdMzcVUaf_SaHuiiUOtleU0MUDCOtVAAHHrOynBNJeiIvZ3x0ts0dQmgpDbJibh5ov1wxAdqEVjOPz5Bvddhk74aflI1nUdIGwXoql708aeNyL56S2MGcad5cJso9ErdApsuX9qsnu70hKKN515ETVgWqDX2DlyMXevdZBtTliDqEeTJ1P0LWzmXLUPecDB-gQ2IgcGmtfdFuVb18WX-HIVSoY-PtkqLZM0nFngXXL4gBfnilTRswpJzplTywcrtvFF91clTuZ1Xe_pgjhpoTm9iKJcu6Mro4WhrXuN-ibqB3TzRD1j5OXr1a472MYsDztF6yRoMYcp8K7vmMNCdYjvEGwaa_HB1BKw6cuyR30gKBVsp8DZ5LFEpLAS_FnuRyiV_JNIEbxVz3G00]--></g></svg>