<?xml version="1.0" encoding="us-ascii" standalone="no"?><svg xmlns="http://www.w3.org/2000/svg" xmlns:xlink="http://www.w3.org/1999/xlink" contentStyleType="text/css" height="542px" preserveAspectRatio="none" style="width:1479px;height:542px;background:#FFFFFF;" version="1.1" viewBox="0 0 1479 542" width="1479px" zoomAndPan="magnify"><defs/><g><g id="ACTIVE"><rect fill="#F1F1F1" height="78.8867" rx="12.5" ry="12.5" style="stroke:#181818;stroke-width:0.5;" width="128" x="700" y="302"/><line style="stroke:#181818;stroke-width:0.5;" x1="700" x2="828" y1="328.4883" y2="328.4883"/><text fill="#000000" font-family="sans-serif" font-size="14" lengthAdjust="spacing" textLength="50" x="739" y="320.5352">ACTIVE</text><text fill="#000000" font-family="sans-serif" font-size="12" lengthAdjust="spacing" textLength="75" x="705" y="345.0898">has approval</text><text fill="#000000" font-family="sans-serif" font-size="12" lengthAdjust="spacing" textLength="88" x="705" y="359.2227">makeStock &gt; 0</text><text fill="#000000" font-family="sans-serif" font-size="12" lengthAdjust="spacing" textLength="108" x="705" y="373.3555">makeStock &lt; filled</text></g><g id="FILLED"><rect fill="#F1F1F1" height="50.6211" rx="12.5" ry="12.5" style="stroke:#181818;stroke-width:0.5;" width="128" x="7" y="472.02"/><line style="stroke:#181818;stroke-width:0.5;" x1="7" x2="135" y1="498.5083" y2="498.5083"/><text fill="#000000" font-family="sans-serif" font-size="14" lengthAdjust="spacing" textLength="44" x="49" y="490.5552">FILLED</text><text fill="#000000" font-family="sans-serif" font-size="12" lengthAdjust="spacing" textLength="108" x="12" y="515.1098">makeStock = filled</text></g><g id="NOT_STARTED"><rect fill="#F1F1F1" height="50.6211" rx="12.5" ry="12.5" style="stroke:#181818;stroke-width:0.5;" width="120" x="910" y="138.69"/><line style="stroke:#181818;stroke-width:0.5;" x1="910" x2="1030" y1="165.1783" y2="165.1783"/><text fill="#000000" font-family="sans-serif" font-size="14" lengthAdjust="spacing" textLength="100" x="920" y="157.2252">NOT_STARTED</text><text fill="#000000" font-family="sans-serif" font-size="12" lengthAdjust="spacing" textLength="67" x="915" y="181.7798">start &gt; now</text></g><g id="ENDED"><rect fill="#F1F1F1" height="50.6211" rx="12.5" ry="12.5" style="stroke:#181818;stroke-width:0.5;" width="83" x="170.5" y="472.02"/><line style="stroke:#181818;stroke-width:0.5;" x1="170.5" x2="253.5" y1="498.5083" y2="498.5083"/><text fill="#000000" font-family="sans-serif" font-size="14" lengthAdjust="spacing" textLength="46" x="189" y="490.5552">ENDED</text><text fill="#000000" font-family="sans-serif" font-size="12" lengthAdjust="spacing" textLength="63" x="175.5" y="515.1098">end &lt; now</text></g><g id="CANCELED"><rect fill="#F1F1F1" height="50.6211" rx="12.5" ry="12.5" style="stroke:#181818;stroke-width:0.5;" width="112" x="453" y="472.02"/><line style="stroke:#181818;stroke-width:0.5;" x1="453" x2="565" y1="498.5083" y2="498.5083"/><text fill="#000000" font-family="sans-serif" font-size="14" lengthAdjust="spacing" textLength="73" x="472.5" y="490.5552">CANCELED</text><text fill="#000000" font-family="sans-serif" font-size="12" lengthAdjust="spacing" textLength="92" x="458" y="515.1098">canceled = true</text></g><g id="INACTIVE"><rect fill="#F1F1F1" height="78.8867" rx="12.5" ry="12.5" style="stroke:#181818;stroke-width:0.5;" width="203" x="1043.5" y="457.88"/><line style="stroke:#181818;stroke-width:0.5;" x1="1043.5" x2="1246.5" y1="484.3683" y2="484.3683"/><text fill="#000000" font-family="sans-serif" font-size="14" lengthAdjust="spacing" textLength="64" x="1113" y="476.4152">INACTIVE</text><text fill="#000000" font-family="sans-serif" font-size="12" lengthAdjust="spacing" textLength="159" x="1048.5" y="500.9698">no approval for make asset</text><text fill="#000000" font-family="sans-serif" font-size="12" lengthAdjust="spacing" textLength="183" x="1048.5" y="515.1027">or no ownership for make asset</text><text fill="#000000" font-family="sans-serif" font-size="12" lengthAdjust="spacing" textLength="104" x="1048.5" y="529.2355">or makeStock = 0</text></g><ellipse cx="970" cy="16" fill="#181818" rx="10" ry="10" style="stroke:none;stroke-width:1.0;"/><!--link *start* to ACTIVE--><g id="link_*start*_ACTIVE"><path d="M960.34,19.79 C928.16,29.67 824.25,66.26 781,138 C752.07,185.98 752.5,252.37 756.99,295.85 " fill="none" id="*start*-to-ACTIVE" style="stroke:#181818;stroke-width:1.0;"/><polygon fill="#181818" points="757.62,300.56,760.6194,291.179,757.0772,295.5895,752.6667,292.0474,757.62,300.56" style="stroke:#181818;stroke-width:1.0;"/><text fill="#000000" font-family="sans-serif" font-size="13" lengthAdjust="spacing" textLength="75" x="799" y="151.5684">create order</text><path d="M786,160.3105 L786,185.3105 L887,185.3105 L887,170.3105 L877,160.3105 L786,160.3105 " fill="#FEFFDD" style="stroke:#181818;stroke-width:0.5;"/><path d="M877,160.3105 L877,170.3105 L887,170.3105 L877,160.3105 " fill="#FEFFDD" style="stroke:#181818;stroke-width:0.5;"/><text fill="#000000" font-family="sans-serif" font-size="13" lengthAdjust="spacing" textLength="80" x="792" y="177.8789">has approval</text></g><!--link *start* to NOT_STARTED--><g id="link_*start*_NOT_STARTED"><path d="M970,26.13 C970,47.02 970,99.07 970,132.62 " fill="none" id="*start*-to-NOT_STARTED" style="stroke:#181818;stroke-width:1.0;"/><polygon fill="#181818" points="970,137.25,974,128.25,970,132.25,966,128.25,970,137.25" style="stroke:#181818;stroke-width:1.0;"/><text fill="#000000" font-family="sans-serif" font-size="13" lengthAdjust="spacing" textLength="75" x="984.5" y="69.5684">create order</text><path d="M975,78.3105 L975,103.3105 L1069,103.3105 L1069,88.3105 L1059,78.3105 L975,78.3105 " fill="#FEFFDD" style="stroke:#181818;stroke-width:0.5;"/><path d="M1059,78.3105 L1059,88.3105 L1069,88.3105 L1059,78.3105 " fill="#FEFFDD" style="stroke:#181818;stroke-width:0.5;"/><text fill="#000000" font-family="sans-serif" font-size="13" lengthAdjust="spacing" textLength="73" x="981" y="95.8789">start &gt; now</text></g><!--link *start* to INACTIVE--><g id="link_*start*_INACTIVE"><path d="M979.91,18.94 C1000.23,23.23 1047.62,34.86 1082,56 C1275.57,174.99 1361.15,201.76 1450,410.88 C1452.95,417.84 1454.72,421.98 1450,427.88 C1425.29,458.76 1329.85,476.66 1252.23,486.36 " fill="none" id="*start*-to-INACTIVE" style="stroke:#181818;stroke-width:1.0;"/><polygon fill="#181818" points="1247.67,487.04,1257.0926,489.9061,1252.6323,486.4268,1256.1115,481.9665,1247.67,487.04" style="stroke:#181818;stroke-width:1.0;"/><text fill="#000000" font-family="sans-serif" font-size="13" lengthAdjust="spacing" textLength="75" x="1387" y="233.5684">create order</text><path d="M1377,242.3105 L1377,267.3105 L1472,267.3105 L1472,252.3105 L1462,242.3105 L1377,242.3105 " fill="#FEFFDD" style="stroke:#181818;stroke-width:0.5;"/><path d="M1462,242.3105 L1462,252.3105 L1472,252.3105 L1462,242.3105 " fill="#FEFFDD" style="stroke:#181818;stroke-width:0.5;"/><text fill="#000000" font-family="sans-serif" font-size="13" lengthAdjust="spacing" textLength="74" x="1383" y="259.8789">no approval</text></g><!--link NOT_STARTED to ACTIVE--><g id="link_NOT_STARTED_ACTIVE"><path d="M940.92,189.76 C907.96,217.83 853.66,264.08 813.9,297.94 " fill="none" id="NOT_STARTED-to-ACTIVE" style="stroke:#181818;stroke-width:1.0;"/><polygon fill="#181818" points="810.61,301.6,820.0577,298.8179,814.4193,298.3613,814.8759,292.7229,810.61,301.6" style="stroke:#181818;stroke-width:1.0;"/><text fill="#000000" font-family="sans-serif" font-size="13" lengthAdjust="spacing" textLength="155" x="904" y="251.0684">activate by start/end job</text></g><!--link ACTIVE to INACTIVE--><g id="link_ACTIVE_INACTIVE"><path d="M752.09,381.03 C749.57,397.19 750.33,415.14 761,427.88 C795.73,469.35 936.61,485.71 1037.66,492.16 " fill="none" id="ACTIVE-to-INACTIVE" style="stroke:#181818;stroke-width:1.0;"/><polygon fill="#181818" points="1042.35,492.51,1033.6195,487.9517,1037.3599,492.1954,1033.1162,495.9359,1042.35,492.51" style="stroke:#181818;stroke-width:1.0;"/><text fill="#000000" font-family="sans-serif" font-size="13" lengthAdjust="spacing" textLength="104" x="762" y="424.4484">remove approval</text></g><!--link ACTIVE to INACTIVE--><g id="link_ACTIVE_INACTIVE"><path d="M821.32,381.33 C846.75,397.35 877.55,415.11 907,427.88 C948.43,445.85 995.93,460.6 1037.54,471.74 " fill="none" id="ACTIVE-to-INACTIVE-1" style="stroke:#181818;stroke-width:1.0;"/><polygon fill="#181818" points="1042.11,473.22,1034.4423,467.0389,1037.2784,471.9335,1032.3838,474.7696,1042.11,473.22" style="stroke:#181818;stroke-width:1.0;"/><text fill="#000000" font-family="sans-serif" font-size="13" lengthAdjust="spacing" textLength="193" x="908" y="424.4484">balance event (makeStock = 0)</text></g><!--link INACTIVE to ACTIVE--><g id="link_INACTIVE_ACTIVE"><path d="M1135.92,457.72 C1130.06,440.95 1120.7,422.53 1106,410.88 C1064.71,378.17 921.55,358.3 834.08,348.94 " fill="none" id="INACTIVE-to-ACTIVE" style="stroke:#181818;stroke-width:1.0;"/><polygon fill="#181818" points="829.14,348.31,837.6667,353.2391,834.112,348.8386,838.5125,345.284,829.14,348.31" style="stroke:#181818;stroke-width:1.0;"/><text fill="#000000" font-family="sans-serif" font-size="13" lengthAdjust="spacing" textLength="110" x="1122" y="424.4484">received approval</text></g><!--link INACTIVE to ACTIVE--><g id="link_INACTIVE_ACTIVE"><path d="M1226.22,457.53 C1244.72,443.63 1255.25,427.32 1241,410.88 C1189.2,351.12 953.76,342.3 834.17,341.77 " fill="none" id="INACTIVE-to-ACTIVE-1" style="stroke:#181818;stroke-width:1.0;"/><polygon fill="#181818" points="829.21,341.75,838.1985,345.7757,834.21,341.7643,838.2214,337.7757,829.21,341.75" style="stroke:#181818;stroke-width:1.0;"/><text fill="#000000" font-family="sans-serif" font-size="13" lengthAdjust="spacing" textLength="193" x="1248" y="424.4484">balance event (makeStock &gt; 0)</text></g><!--link ACTIVE to CANCELED--><g id="link_ACTIVE_CANCELED"><path d="M699.68,345.83 C610.29,352.05 455.56,368.74 421,410.88 C403.96,431.65 425.09,452.7 450.9,468.71 " fill="none" id="ACTIVE-to-CANCELED" style="stroke:#181818;stroke-width:1.0;"/><polygon fill="#181818" points="454.76,471.64,449.1005,463.5796,450.4725,469.0675,444.9846,470.4395,454.76,471.64" style="stroke:#181818;stroke-width:1.0;"/><text fill="#000000" font-family="sans-serif" font-size="13" lengthAdjust="spacing" textLength="128" x="422" y="424.4484">cancel event by user</text></g><!--link ACTIVE to CANCELED--><g id="link_ACTIVE_CANCELED"><path d="M699.55,360.59 C665.54,371.93 624.12,388.65 591,410.88 C568.03,426.31 546.54,449.13 531.33,467.31 " fill="none" id="ACTIVE-to-CANCELED-1" style="stroke:#181818;stroke-width:1.0;"/><polygon fill="#181818" points="527.61,470.83,536.4254,466.438,530.794,466.9749,530.2572,461.3436,527.61,470.83" style="stroke:#181818;stroke-width:1.0;"/><text fill="#000000" font-family="sans-serif" font-size="13" lengthAdjust="spacing" textLength="128" x="592" y="424.4484">cancel via admin api</text></g><!--link ACTIVE to ACTIVE--><g id="link_ACTIVE_ACTIVE"><path d="M828.27,326.85 C847.76,327.21 863,332.08 863,341.44 C863,349.85 850.7,354.63 834.07,355.78 " fill="none" id="ACTIVE-to-ACTIVE" style="stroke:#181818;stroke-width:1.0;"/><polygon fill="#181818" points="829.27,356.03,838.4335,359.6398,834.2654,355.8153,838.0899,351.6472,829.27,356.03" style="stroke:#181818;stroke-width:1.0;"/><text fill="#000000" font-family="sans-serif" font-size="13" lengthAdjust="spacing" textLength="77" x="869" y="346.5084">match event</text></g><!--link ACTIVE to FILLED--><g id="link_ACTIVE_FILLED"><path d="M699.65,343.1 C559.42,345.55 231.24,357.05 136,410.88 C113.56,423.57 96.4,447.48 85.36,466.79 " fill="none" id="ACTIVE-to-FILLED" style="stroke:#181818;stroke-width:1.0;"/><polygon fill="#181818" points="82.69,470.59,90.5574,464.6652,85.1182,466.2192,83.5642,460.78,82.69,470.59" style="stroke:#181818;stroke-width:1.0;"/><text fill="#000000" font-family="sans-serif" font-size="13" lengthAdjust="spacing" textLength="77" x="137" y="424.4484">match event</text></g><!--link ACTIVE to ENDED--><g id="link_ACTIVE_ENDED"><path d="M699.79,342.13 C574.33,342.86 302.98,351.47 235,410.88 C219.49,424.44 213.91,447.25 212.13,465.89 " fill="none" id="ACTIVE-to-ENDED" style="stroke:#181818;stroke-width:1.0;"/><polygon fill="#181818" points="211.69,470.52,216.3969,461.8687,212.0899,465.536,208.4226,461.2289,211.69,470.52" style="stroke:#181818;stroke-width:1.0;"/><text fill="#000000" font-family="sans-serif" font-size="13" lengthAdjust="spacing" textLength="170" x="236" y="424.4484">deactivate by start/end job</text></g><!--SRC=[XPDDQuD048Rl-olcs1P2Sowj8CP085Xef9TIoaGdPAlkohenzDztrw-krYGtcNdtcNS-z8Duynu-mH4hmB9KiiQS-Lsmm8nsMYOPUB2SYJx3WUSvfMozsMx3bPjwwLFHQ_orY_stsEOhZKeRc91d5aOh6oAH6euD17uKX0qcGP6GUMmeMfs8RQA-jf23IpX8rHG4h2hIZiZ4ZKwU1QdgoCkhGjVnah6FXqzOB3ne5M2iA49DHfcIOaBQJm4v5nc3ySni7pO_89p6Rt3SgVp3z6vlC9p1_35S2wEkCD6yjgpzJrlzqRxvbljkoTFAYWfPq_H06bM_DUZN1bIJq9PygepFUU0USolkj7UZBTnVnzSS0TE22sE7kz81Ng1EZYrwMFPOeIWXNfi36pgQrrsqwKrijZ_0fBQJRuxTf5EwFFfV]--></g></svg>