<?xml version="1.0" encoding="us-ascii" standalone="no"?><svg xmlns="http://www.w3.org/2000/svg" xmlns:xlink="http://www.w3.org/1999/xlink" contentStyleType="text/css" height="566px" preserveAspectRatio="none" style="width:1041px;height:566px;background:#FFFFFF;" version="1.1" viewBox="0 0 1041 566" width="1041px" zoomAndPan="magnify"><defs/><g><rect fill="#DDDDDD" height="554.6348" style="stroke:#181818;stroke-width:0.5;" width="345" x="257.5" y="6"/><text fill="#000000" font-family="sans-serif" font-size="13" font-weight="bold" lengthAdjust="spacing" textLength="38" x="411" y="18.5684">Kafka</text><rect fill="#DDDDDD" height="554.6348" style="stroke:#181818;stroke-width:0.5;" width="216" x="604.5" y="6"/><text fill="#000000" font-family="sans-serif" font-size="13" font-weight="bold" lengthAdjust="spacing" textLength="96" x="664.5" y="18.5684">Order indexer</text><rect fill="#DDDDDD" height="554.6348" style="stroke:#181818;stroke-width:0.5;" width="194" x="841" y="6"/><text fill="#000000" font-family="sans-serif" font-size="13" font-weight="bold" lengthAdjust="spacing" textLength="46" x="915" y="18.5684">Mongo</text><rect fill="#FFFFFF" height="273.4844" style="stroke:#181818;stroke-width:1.0;" width="10" x="621" y="234.6621"/><line style="stroke:#181818;stroke-width:0.5;stroke-dasharray:5.0,5.0;" x1="25" x2="25" y1="56.7988" y2="526.1465"/><line style="stroke:#181818;stroke-width:0.5;stroke-dasharray:5.0,5.0;" x1="207.5" x2="207.5" y1="56.7988" y2="526.1465"/><line style="stroke:#181818;stroke-width:0.5;stroke-dasharray:5.0,5.0;" x1="429.5" x2="429.5" y1="56.7988" y2="526.1465"/><line style="stroke:#181818;stroke-width:0.5;stroke-dasharray:5.0,5.0;" x1="625.5" x2="625.5" y1="56.7988" y2="526.1465"/><line style="stroke:#181818;stroke-width:0.5;stroke-dasharray:5.0,5.0;" x1="783.5" x2="783.5" y1="56.7988" y2="526.1465"/><line style="stroke:#181818;stroke-width:0.5;stroke-dasharray:5.0,5.0;" x1="907" x2="907" y1="56.7988" y2="526.1465"/><line style="stroke:#181818;stroke-width:0.5;stroke-dasharray:5.0,5.0;" x1="1005" x2="1005" y1="56.7988" y2="526.1465"/><rect fill="#E2E2F0" height="30.4883" rx="2.5" ry="2.5" style="stroke:#181818;stroke-width:0.5;" width="41" x="5" y="25.3105"/><text fill="#000000" font-family="sans-serif" font-size="14" lengthAdjust="spacing" textLength="27" x="12" y="45.8457">SDK</text><rect fill="#E2E2F0" height="30.4883" rx="2.5" ry="2.5" style="stroke:#181818;stroke-width:0.5;" width="41" x="5" y="525.1465"/><text fill="#000000" font-family="sans-serif" font-size="14" lengthAdjust="spacing" textLength="27" x="12" y="545.6816">SDK</text><rect fill="#E2E2F0" height="30.4883" rx="2.5" ry="2.5" style="stroke:#181818;stroke-width:0.5;" width="88" x="163.5" y="25.3105"/><text fill="#000000" font-family="sans-serif" font-size="14" lengthAdjust="spacing" textLength="74" x="170.5" y="45.8457">ETHEREUM</text><rect fill="#E2E2F0" height="30.4883" rx="2.5" ry="2.5" style="stroke:#181818;stroke-width:0.5;" width="88" x="163.5" y="525.1465"/><text fill="#000000" font-family="sans-serif" font-size="14" lengthAdjust="spacing" textLength="74" x="170.5" y="545.6816">ETHEREUM</text><rect fill="#E2E2F0" height="30.4883" rx="2.5" ry="2.5" style="stroke:#181818;stroke-width:0.5;" width="337" x="261.5" y="25.3105"/><text fill="#000000" font-family="sans-serif" font-size="14" lengthAdjust="spacing" textLength="323" x="268.5" y="45.8457">blockchain-scanner.order.log.approval-history</text><rect fill="#E2E2F0" height="30.4883" rx="2.5" ry="2.5" style="stroke:#181818;stroke-width:0.5;" width="337" x="261.5" y="525.1465"/><text fill="#000000" font-family="sans-serif" font-size="14" lengthAdjust="spacing" textLength="323" x="268.5" y="545.6816">blockchain-scanner.order.log.approval-history</text><rect fill="#E2E2F0" height="30.4883" rx="2.5" ry="2.5" style="stroke:#181818;stroke-width:0.5;" width="35" x="608.5" y="25.3105"/><text fill="#000000" font-family="sans-serif" font-size="14" lengthAdjust="spacing" textLength="21" x="615.5" y="45.8457">api</text><rect fill="#E2E2F0" height="30.4883" rx="2.5" ry="2.5" style="stroke:#181818;stroke-width:0.5;" width="35" x="608.5" y="525.1465"/><text fill="#000000" font-family="sans-serif" font-size="14" lengthAdjust="spacing" textLength="21" x="615.5" y="545.6816">api</text><rect fill="#E2E2F0" height="30.4883" rx="2.5" ry="2.5" style="stroke:#181818;stroke-width:0.5;" width="65" x="751.5" y="25.3105"/><text fill="#000000" font-family="sans-serif" font-size="14" lengthAdjust="spacing" textLength="51" x="758.5" y="45.8457">listener</text><rect fill="#E2E2F0" height="30.4883" rx="2.5" ry="2.5" style="stroke:#181818;stroke-width:0.5;" width="65" x="751.5" y="525.1465"/><text fill="#000000" font-family="sans-serif" font-size="14" lengthAdjust="spacing" textLength="51" x="758.5" y="545.6816">listener</text><rect fill="#E2E2F0" height="30.4883" rx="2.5" ry="2.5" style="stroke:#181818;stroke-width:0.5;" width="124" x="845" y="25.3105"/><text fill="#000000" font-family="sans-serif" font-size="14" lengthAdjust="spacing" textLength="110" x="852" y="45.8457">approve_history</text><rect fill="#E2E2F0" height="30.4883" rx="2.5" ry="2.5" style="stroke:#181818;stroke-width:0.5;" width="124" x="845" y="525.1465"/><text fill="#000000" font-family="sans-serif" font-size="14" lengthAdjust="spacing" textLength="110" x="852" y="545.6816">approve_history</text><rect fill="#E2E2F0" height="30.4883" rx="2.5" ry="2.5" style="stroke:#181818;stroke-width:0.5;" width="52" x="979" y="25.3105"/><text fill="#000000" font-family="sans-serif" font-size="14" lengthAdjust="spacing" textLength="38" x="986" y="45.8457">order</text><rect fill="#E2E2F0" height="30.4883" rx="2.5" ry="2.5" style="stroke:#181818;stroke-width:0.5;" width="52" x="979" y="525.1465"/><text fill="#000000" font-family="sans-serif" font-size="14" lengthAdjust="spacing" textLength="38" x="986" y="545.6816">order</text><rect fill="#FFFFFF" height="273.4844" style="stroke:#181818;stroke-width:1.0;" width="10" x="621" y="234.6621"/><polygon fill="#181818" points="195.5,84.1094,205.5,88.1094,195.5,92.1094,199.5,88.1094" style="stroke:#181818;stroke-width:1.0;"/><line style="stroke:#181818;stroke-width:1.0;" x1="25.5" x2="201.5" y1="88.1094" y2="88.1094"/><text fill="#000000" font-family="sans-serif" font-size="13" lengthAdjust="spacing" textLength="158" x="32.5" y="83.3672">calling approve for token</text><polygon fill="#181818" points="772,113.4199,782,117.4199,772,121.4199,776,117.4199" style="stroke:#181818;stroke-width:1.0;"/><line style="stroke:#181818;stroke-width:1.0;" x1="207.5" x2="778" y1="117.4199" y2="117.4199"/><text fill="#000000" font-family="sans-serif" font-size="13" lengthAdjust="spacing" textLength="273" x="214.5" y="112.6777">approval event (get by blockchain-scanner)</text><polygon fill="#181818" points="441,142.7305,431,146.7305,441,150.7305,437,146.7305" style="stroke:#181818;stroke-width:1.0;"/><line style="stroke:#181818;stroke-width:1.0;" x1="435" x2="783" y1="146.7305" y2="146.7305"/><text fill="#000000" font-family="sans-serif" font-size="13" lengthAdjust="spacing" textLength="94" x="447" y="141.9883">kafka message</text><polygon fill="#181818" points="772,172.041,782,176.041,772,180.041,776,176.041" style="stroke:#181818;stroke-width:1.0;"/><line style="stroke:#181818;stroke-width:1.0;" x1="430" x2="778" y1="176.041" y2="176.041"/><text fill="#000000" font-family="sans-serif" font-size="13" lengthAdjust="spacing" textLength="94" x="437" y="171.2988">kafka message</text><polygon fill="#181818" points="895,201.3516,905,205.3516,895,209.3516,899,205.3516" style="stroke:#181818;stroke-width:1.0;"/><line style="stroke:#181818;stroke-width:1.0;" x1="784" x2="901" y1="205.3516" y2="205.3516"/><text fill="#000000" font-family="sans-serif" font-size="13" lengthAdjust="spacing" textLength="99" x="791" y="200.6094">saving approval</text><polygon fill="#181818" points="609,230.6621,619,234.6621,609,238.6621,613,234.6621" style="stroke:#181818;stroke-width:1.0;"/><line style="stroke:#181818;stroke-width:1.0;" x1="25.5" x2="615" y1="234.6621" y2="234.6621"/><text fill="#000000" font-family="sans-serif" font-size="13" lengthAdjust="spacing" textLength="114" x="32.5" y="229.9199">creating sell order</text><polygon fill="#181818" points="993,259.9727,1003,263.9727,993,267.9727,997,263.9727" style="stroke:#181818;stroke-width:1.0;"/><line style="stroke:#181818;stroke-width:1.0;" x1="631" x2="999" y1="263.9727" y2="263.9727"/><text fill="#000000" font-family="sans-serif" font-size="13" lengthAdjust="spacing" textLength="144" x="638" y="259.2305">checking existed order</text><line style="stroke:#181818;stroke-width:1.0;" x1="631" x2="673" y1="293.2832" y2="293.2832"/><line style="stroke:#181818;stroke-width:1.0;" x1="673" x2="673" y1="293.2832" y2="306.2832"/><line style="stroke:#181818;stroke-width:1.0;" x1="632" x2="673" y1="306.2832" y2="306.2832"/><polygon fill="#181818" points="642,302.2832,632,306.2832,642,310.2832,638,306.2832" style="stroke:#181818;stroke-width:1.0;"/><text fill="#000000" font-family="sans-serif" font-size="13" lengthAdjust="spacing" textLength="99" x="638" y="288.541">validating order</text><polygon fill="#181818" points="218.5,331.5938,208.5,335.5938,218.5,339.5938,214.5,335.5938" style="stroke:#181818;stroke-width:1.0;"/><line style="stroke:#181818;stroke-width:1.0;" x1="212.5" x2="620" y1="335.5938" y2="335.5938"/><text fill="#000000" font-family="sans-serif" font-size="13" lengthAdjust="spacing" textLength="123" x="224.5" y="330.8516">checking allowance</text><line style="stroke:#181818;stroke-width:1.0;" x1="631" x2="673" y1="364.9043" y2="364.9043"/><line style="stroke:#181818;stroke-width:1.0;" x1="673" x2="673" y1="364.9043" y2="377.9043"/><line style="stroke:#181818;stroke-width:1.0;" x1="632" x2="673" y1="377.9043" y2="377.9043"/><polygon fill="#181818" points="642,373.9043,632,377.9043,642,381.9043,638,377.9043" style="stroke:#181818;stroke-width:1.0;"/><text fill="#000000" font-family="sans-serif" font-size="13" lengthAdjust="spacing" textLength="92" x="638" y="360.1621">reducing order</text><polygon fill="#181818" points="895,403.2148,905,407.2148,895,411.2148,899,407.2148" style="stroke:#181818;stroke-width:1.0;"/><line style="stroke:#181818;stroke-width:1.0;" x1="631" x2="901" y1="407.2148" y2="407.2148"/><text fill="#000000" font-family="sans-serif" font-size="13" lengthAdjust="spacing" textLength="130" x="638" y="402.4727">getting last approval</text><line style="stroke:#181818;stroke-width:1.0;" x1="631" x2="673" y1="436.5254" y2="436.5254"/><line style="stroke:#181818;stroke-width:1.0;" x1="673" x2="673" y1="436.5254" y2="449.5254"/><line style="stroke:#181818;stroke-width:1.0;" x1="632" x2="673" y1="449.5254" y2="449.5254"/><polygon fill="#181818" points="642,445.5254,632,449.5254,642,453.5254,638,449.5254" style="stroke:#181818;stroke-width:1.0;"/><text fill="#000000" font-family="sans-serif" font-size="13" lengthAdjust="spacing" textLength="134" x="638" y="431.7832">seting order approval</text><polygon fill="#181818" points="993,474.8359,1003,478.8359,993,482.8359,997,478.8359" style="stroke:#181818;stroke-width:1.0;"/><line style="stroke:#181818;stroke-width:1.0;" x1="631" x2="999" y1="478.8359" y2="478.8359"/><text fill="#000000" font-family="sans-serif" font-size="13" lengthAdjust="spacing" textLength="78" x="638" y="474.0938">saving order</text><polygon fill="#181818" points="36.5,504.1465,26.5,508.1465,36.5,512.1465,32.5,508.1465" style="stroke:#181818;stroke-width:1.0;"/><line style="stroke:#181818;stroke-width:1.0;" x1="30.5" x2="625" y1="508.1465" y2="508.1465"/><text fill="#000000" font-family="sans-serif" font-size="13" lengthAdjust="spacing" textLength="33" x="42.5" y="503.4043">order</text><!--SRC=[bPB1ReCm38RlUGgBqtQW3y1XfrMQL5MJrkqykObB8x849HcZRxy44a7AgOSY5V__P_itfzS3r2-m_tpRV-o_ZWrmL4hg5h3lhHa8BiQ2DnrfbZLHhwJpfCasIOSAQ23juQab3-SRd9NX7R-YrBNZg8FqcMLJ15HRmSvO4PxAjBiChQ_1OkojWWOwl7G8F-GSjiGUzHSpbwZrM6dhx-HhmE6mf86AdUQyi9SXAaleOzMHKZ1rPyYz7D1JLB3mY-Af4kHNubsKqnWxYkoOHHCnT91YPXR5rNao99p9_A7cL00iYL- -iM-s2aUQcYXqVjbj3NAqJB5Hf8LIDaMha4-JtWWgmc1dCq9rYD5Nh4Vh9PSzXa_cmLCoqW82Am7Vfmcb5ZIIBS6nw_f_FlGTuMXqQ-wTHM15RLuk8_u1]--></g></svg>