<?xml version="1.0" encoding="us-ascii" standalone="no"?><svg xmlns="http://www.w3.org/2000/svg" xmlns:xlink="http://www.w3.org/1999/xlink" contentStyleType="text/css" height="436px" preserveAspectRatio="none" style="width:958px;height:436px;background:#FFFFFF;" version="1.1" viewBox="0 0 958 436" width="958px" zoomAndPan="magnify"><defs/><g><rect fill="#DDDDDD" height="424.3926" style="stroke:#181818;stroke-width:0.5;" width="345" x="257.5" y="6"/><text fill="#000000" font-family="sans-serif" font-size="13" font-weight="bold" lengthAdjust="spacing" textLength="38" x="411" y="18.5684">Kafka</text><rect fill="#DDDDDD" height="424.3926" style="stroke:#181818;stroke-width:0.5;" width="102" x="604.5" y="6"/><text fill="#000000" font-family="sans-serif" font-size="13" font-weight="bold" lengthAdjust="spacing" textLength="96" x="607.5" y="18.5684">Order indexer</text><rect fill="#DDDDDD" height="424.3926" style="stroke:#181818;stroke-width:0.5;" width="194" x="758" y="6"/><text fill="#000000" font-family="sans-serif" font-size="13" font-weight="bold" lengthAdjust="spacing" textLength="46" x="832" y="18.5684">Mongo</text><line style="stroke:#181818;stroke-width:0.5;stroke-dasharray:5.0,5.0;" x1="25" x2="25" y1="56.7988" y2="395.9043"/><line style="stroke:#181818;stroke-width:0.5;stroke-dasharray:5.0,5.0;" x1="207.5" x2="207.5" y1="56.7988" y2="395.9043"/><line style="stroke:#181818;stroke-width:0.5;stroke-dasharray:5.0,5.0;" x1="429.5" x2="429.5" y1="56.7988" y2="395.9043"/><line style="stroke:#181818;stroke-width:0.5;stroke-dasharray:5.0,5.0;" x1="655" x2="655" y1="56.7988" y2="395.9043"/><line style="stroke:#181818;stroke-width:0.5;stroke-dasharray:5.0,5.0;" x1="824" x2="824" y1="56.7988" y2="395.9043"/><line style="stroke:#181818;stroke-width:0.5;stroke-dasharray:5.0,5.0;" x1="922" x2="922" y1="56.7988" y2="395.9043"/><rect fill="#E2E2F0" height="30.4883" rx="2.5" ry="2.5" style="stroke:#181818;stroke-width:0.5;" width="41" x="5" y="25.3105"/><text fill="#000000" font-family="sans-serif" font-size="14" lengthAdjust="spacing" textLength="27" x="12" y="45.8457">SDK</text><rect fill="#E2E2F0" height="30.4883" rx="2.5" ry="2.5" style="stroke:#181818;stroke-width:0.5;" width="41" x="5" y="394.9043"/><text fill="#000000" font-family="sans-serif" font-size="14" lengthAdjust="spacing" textLength="27" x="12" y="415.4395">SDK</text><rect fill="#E2E2F0" height="30.4883" rx="2.5" ry="2.5" style="stroke:#181818;stroke-width:0.5;" width="88" x="163.5" y="25.3105"/><text fill="#000000" font-family="sans-serif" font-size="14" lengthAdjust="spacing" textLength="74" x="170.5" y="45.8457">ETHEREUM</text><rect fill="#E2E2F0" height="30.4883" rx="2.5" ry="2.5" style="stroke:#181818;stroke-width:0.5;" width="88" x="163.5" y="394.9043"/><text fill="#000000" font-family="sans-serif" font-size="14" lengthAdjust="spacing" textLength="74" x="170.5" y="415.4395">ETHEREUM</text><rect fill="#E2E2F0" height="30.4883" rx="2.5" ry="2.5" style="stroke:#181818;stroke-width:0.5;" width="337" x="261.5" y="25.3105"/><text fill="#000000" font-family="sans-serif" font-size="14" lengthAdjust="spacing" textLength="323" x="268.5" y="45.8457">blockchain-scanner.order.log.approval-history</text><rect fill="#E2E2F0" height="30.4883" rx="2.5" ry="2.5" style="stroke:#181818;stroke-width:0.5;" width="337" x="261.5" y="394.9043"/><text fill="#000000" font-family="sans-serif" font-size="14" lengthAdjust="spacing" textLength="323" x="268.5" y="415.4395">blockchain-scanner.order.log.approval-history</text><rect fill="#E2E2F0" height="30.4883" rx="2.5" ry="2.5" style="stroke:#181818;stroke-width:0.5;" width="65" x="623" y="25.3105"/><text fill="#000000" font-family="sans-serif" font-size="14" lengthAdjust="spacing" textLength="51" x="630" y="45.8457">listener</text><rect fill="#E2E2F0" height="30.4883" rx="2.5" ry="2.5" style="stroke:#181818;stroke-width:0.5;" width="65" x="623" y="394.9043"/><text fill="#000000" font-family="sans-serif" font-size="14" lengthAdjust="spacing" textLength="51" x="630" y="415.4395">listener</text><rect fill="#E2E2F0" height="30.4883" rx="2.5" ry="2.5" style="stroke:#181818;stroke-width:0.5;" width="124" x="762" y="25.3105"/><text fill="#000000" font-family="sans-serif" font-size="14" lengthAdjust="spacing" textLength="110" x="769" y="45.8457">approve_history</text><rect fill="#E2E2F0" height="30.4883" rx="2.5" ry="2.5" style="stroke:#181818;stroke-width:0.5;" width="124" x="762" y="394.9043"/><text fill="#000000" font-family="sans-serif" font-size="14" lengthAdjust="spacing" textLength="110" x="769" y="415.4395">approve_history</text><rect fill="#E2E2F0" height="30.4883" rx="2.5" ry="2.5" style="stroke:#181818;stroke-width:0.5;" width="52" x="896" y="25.3105"/><text fill="#000000" font-family="sans-serif" font-size="14" lengthAdjust="spacing" textLength="38" x="903" y="45.8457">order</text><rect fill="#E2E2F0" height="30.4883" rx="2.5" ry="2.5" style="stroke:#181818;stroke-width:0.5;" width="52" x="896" y="394.9043"/><text fill="#000000" font-family="sans-serif" font-size="14" lengthAdjust="spacing" textLength="38" x="903" y="415.4395">order</text><polygon fill="#181818" points="195.5,84.1094,205.5,88.1094,195.5,92.1094,199.5,88.1094" style="stroke:#181818;stroke-width:1.0;"/><line style="stroke:#181818;stroke-width:1.0;" x1="25.5" x2="201.5" y1="88.1094" y2="88.1094"/><text fill="#000000" font-family="sans-serif" font-size="13" lengthAdjust="spacing" textLength="158" x="32.5" y="83.3672">calling approve for token</text><polygon fill="#181818" points="643.5,113.4199,653.5,117.4199,643.5,121.4199,647.5,117.4199" style="stroke:#181818;stroke-width:1.0;"/><line style="stroke:#181818;stroke-width:1.0;" x1="207.5" x2="649.5" y1="117.4199" y2="117.4199"/><text fill="#000000" font-family="sans-serif" font-size="13" lengthAdjust="spacing" textLength="273" x="214.5" y="112.6777">approval event (get by blockchain-scanner)</text><polygon fill="#181818" points="441,142.7305,431,146.7305,441,150.7305,437,146.7305" style="stroke:#181818;stroke-width:1.0;"/><line style="stroke:#181818;stroke-width:1.0;" x1="435" x2="654.5" y1="146.7305" y2="146.7305"/><text fill="#000000" font-family="sans-serif" font-size="13" lengthAdjust="spacing" textLength="94" x="447" y="141.9883">kafka message</text><polygon fill="#181818" points="643.5,172.041,653.5,176.041,643.5,180.041,647.5,176.041" style="stroke:#181818;stroke-width:1.0;"/><line style="stroke:#181818;stroke-width:1.0;" x1="430" x2="649.5" y1="176.041" y2="176.041"/><text fill="#000000" font-family="sans-serif" font-size="13" lengthAdjust="spacing" textLength="94" x="437" y="171.2988">kafka message</text><polygon fill="#181818" points="812,201.3516,822,205.3516,812,209.3516,816,205.3516" style="stroke:#181818;stroke-width:1.0;"/><line style="stroke:#181818;stroke-width:1.0;" x1="655.5" x2="818" y1="205.3516" y2="205.3516"/><text fill="#000000" font-family="sans-serif" font-size="13" lengthAdjust="spacing" textLength="99" x="662.5" y="200.6094">saving approval</text><polygon fill="#181818" points="910,230.6621,920,234.6621,910,238.6621,914,234.6621" style="stroke:#181818;stroke-width:1.0;"/><line style="stroke:#181818;stroke-width:1.0;" x1="655.5" x2="916" y1="234.6621" y2="234.6621"/><text fill="#000000" font-family="sans-serif" font-size="13" lengthAdjust="spacing" textLength="107" x="662.5" y="229.9199">get existed order</text><line style="stroke:#181818;stroke-width:1.0;" x1="655.5" x2="697.5" y1="263.9727" y2="263.9727"/><line style="stroke:#181818;stroke-width:1.0;" x1="697.5" x2="697.5" y1="263.9727" y2="276.9727"/><line style="stroke:#181818;stroke-width:1.0;" x1="656.5" x2="697.5" y1="276.9727" y2="276.9727"/><polygon fill="#181818" points="666.5,272.9727,656.5,276.9727,666.5,280.9727,662.5,276.9727" style="stroke:#181818;stroke-width:1.0;"/><text fill="#000000" font-family="sans-serif" font-size="13" lengthAdjust="spacing" textLength="92" x="662.5" y="259.2305">reducing order</text><polygon fill="#181818" points="812,302.2832,822,306.2832,812,310.2832,816,306.2832" style="stroke:#181818;stroke-width:1.0;"/><line style="stroke:#181818;stroke-width:1.0;" x1="655.5" x2="818" y1="306.2832" y2="306.2832"/><text fill="#000000" font-family="sans-serif" font-size="13" lengthAdjust="spacing" textLength="130" x="662.5" y="301.541">getting last approval</text><line style="stroke:#181818;stroke-width:1.0;" x1="655.5" x2="697.5" y1="335.5938" y2="335.5938"/><line style="stroke:#181818;stroke-width:1.0;" x1="697.5" x2="697.5" y1="335.5938" y2="348.5938"/><line style="stroke:#181818;stroke-width:1.0;" x1="656.5" x2="697.5" y1="348.5938" y2="348.5938"/><polygon fill="#181818" points="666.5,344.5938,656.5,348.5938,666.5,352.5938,662.5,348.5938" style="stroke:#181818;stroke-width:1.0;"/><text fill="#000000" font-family="sans-serif" font-size="13" lengthAdjust="spacing" textLength="114" x="662.5" y="330.8516">set order approval</text><polygon fill="#181818" points="910,373.9043,920,377.9043,910,381.9043,914,377.9043" style="stroke:#181818;stroke-width:1.0;"/><line style="stroke:#181818;stroke-width:1.0;" x1="655.5" x2="916" y1="377.9043" y2="377.9043"/><text fill="#000000" font-family="sans-serif" font-size="13" lengthAdjust="spacing" textLength="78" x="662.5" y="373.1621">saving order</text><!--SRC=[bP7DRiCW48JlFCNAf_RWF027d6gfKXHLQfjpjOQDWqp00cevRr_mZrpYgb8k763cczdbu-K0vHwgpzVglJeTEGZKMfa6iEkSxGdEra6mBHcsQ99UAn_8aEEp3ZLGJoR0KqC1wXlKsefMN52PqWiqKVhC5bC255l1pZePJssRtG8jBz5YtQq03YsUMuGhUOyDiKVzMUSSzRlMFFNNxEFWiL-tWJeJZtaSqiGqf7ivNMMYDTMH_1O9jXLjOYCp9Ab67_uENxa-ve_8VrlEWqpPhBO358UqXe9rw88IgiFuVG-kbP6H45apy6rieOoaWLmENXhTEOxMD3PNtkqYUvlQBuWV]--></g></svg>