<?xml version="1.0" encoding="us-ascii" standalone="no"?><svg xmlns="http://www.w3.org/2000/svg" xmlns:xlink="http://www.w3.org/1999/xlink" contentStyleType="text/css" height="407px" preserveAspectRatio="none" style="width:835px;height:407px;background:#FFFFFF;" version="1.1" viewBox="0 0 835 407" width="835px" zoomAndPan="magnify"><defs/><g><rect fill="#DDDDDD" height="395.082" style="stroke:#181818;stroke-width:0.5;" width="163" x="257.5" y="6"/><text fill="#000000" font-family="sans-serif" font-size="13" font-weight="bold" lengthAdjust="spacing" textLength="38" x="320" y="18.5684">Kafka</text><rect fill="#DDDDDD" height="395.082" style="stroke:#181818;stroke-width:0.5;" width="102" x="468" y="6"/><text fill="#000000" font-family="sans-serif" font-size="13" font-weight="bold" lengthAdjust="spacing" textLength="96" x="471" y="18.5684">Order indexer</text><rect fill="#DDDDDD" height="395.082" style="stroke:#181818;stroke-width:0.5;" width="194" x="635.5" y="6"/><text fill="#000000" font-family="sans-serif" font-size="13" font-weight="bold" lengthAdjust="spacing" textLength="46" x="709.5" y="18.5684">Mongo</text><line style="stroke:#181818;stroke-width:0.5;stroke-dasharray:5.0,5.0;" x1="25" x2="25" y1="56.7988" y2="366.5938"/><line style="stroke:#181818;stroke-width:0.5;stroke-dasharray:5.0,5.0;" x1="207.5" x2="207.5" y1="56.7988" y2="366.5938"/><line style="stroke:#181818;stroke-width:0.5;stroke-dasharray:5.0,5.0;" x1="338.5" x2="338.5" y1="56.7988" y2="366.5938"/><line style="stroke:#181818;stroke-width:0.5;stroke-dasharray:5.0,5.0;" x1="518.5" x2="518.5" y1="56.7988" y2="366.5938"/><line style="stroke:#181818;stroke-width:0.5;stroke-dasharray:5.0,5.0;" x1="701.5" x2="701.5" y1="56.7988" y2="366.5938"/><line style="stroke:#181818;stroke-width:0.5;stroke-dasharray:5.0,5.0;" x1="799.5" x2="799.5" y1="56.7988" y2="366.5938"/><rect fill="#E2E2F0" height="30.4883" rx="2.5" ry="2.5" style="stroke:#181818;stroke-width:0.5;" width="41" x="5" y="25.3105"/><text fill="#000000" font-family="sans-serif" font-size="14" lengthAdjust="spacing" textLength="27" x="12" y="45.8457">SDK</text><rect fill="#E2E2F0" height="30.4883" rx="2.5" ry="2.5" style="stroke:#181818;stroke-width:0.5;" width="41" x="5" y="365.5938"/><text fill="#000000" font-family="sans-serif" font-size="14" lengthAdjust="spacing" textLength="27" x="12" y="386.1289">SDK</text><rect fill="#E2E2F0" height="30.4883" rx="2.5" ry="2.5" style="stroke:#181818;stroke-width:0.5;" width="88" x="163.5" y="25.3105"/><text fill="#000000" font-family="sans-serif" font-size="14" lengthAdjust="spacing" textLength="74" x="170.5" y="45.8457">ETHEREUM</text><rect fill="#E2E2F0" height="30.4883" rx="2.5" ry="2.5" style="stroke:#181818;stroke-width:0.5;" width="88" x="163.5" y="365.5938"/><text fill="#000000" font-family="sans-serif" font-size="14" lengthAdjust="spacing" textLength="74" x="170.5" y="386.1289">ETHEREUM</text><rect fill="#E2E2F0" height="30.4883" rx="2.5" ry="2.5" style="stroke:#181818;stroke-width:0.5;" width="155" x="261.5" y="25.3105"/><text fill="#000000" font-family="sans-serif" font-size="14" lengthAdjust="spacing" textLength="141" x="268.5" y="45.8457">log.approval-history</text><rect fill="#E2E2F0" height="30.4883" rx="2.5" ry="2.5" style="stroke:#181818;stroke-width:0.5;" width="155" x="261.5" y="365.5938"/><text fill="#000000" font-family="sans-serif" font-size="14" lengthAdjust="spacing" textLength="141" x="268.5" y="386.1289">log.approval-history</text><rect fill="#E2E2F0" height="30.4883" rx="2.5" ry="2.5" style="stroke:#181818;stroke-width:0.5;" width="65" x="486.5" y="25.3105"/><text fill="#000000" font-family="sans-serif" font-size="14" lengthAdjust="spacing" textLength="51" x="493.5" y="45.8457">listener</text><rect fill="#E2E2F0" height="30.4883" rx="2.5" ry="2.5" style="stroke:#181818;stroke-width:0.5;" width="65" x="486.5" y="365.5938"/><text fill="#000000" font-family="sans-serif" font-size="14" lengthAdjust="spacing" textLength="51" x="493.5" y="386.1289">listener</text><rect fill="#E2E2F0" height="30.4883" rx="2.5" ry="2.5" style="stroke:#181818;stroke-width:0.5;" width="124" x="639.5" y="25.3105"/><text fill="#000000" font-family="sans-serif" font-size="14" lengthAdjust="spacing" textLength="110" x="646.5" y="45.8457">approve_history</text><rect fill="#E2E2F0" height="30.4883" rx="2.5" ry="2.5" style="stroke:#181818;stroke-width:0.5;" width="124" x="639.5" y="365.5938"/><text fill="#000000" font-family="sans-serif" font-size="14" lengthAdjust="spacing" textLength="110" x="646.5" y="386.1289">approve_history</text><rect fill="#E2E2F0" height="30.4883" rx="2.5" ry="2.5" style="stroke:#181818;stroke-width:0.5;" width="52" x="773.5" y="25.3105"/><text fill="#000000" font-family="sans-serif" font-size="14" lengthAdjust="spacing" textLength="38" x="780.5" y="45.8457">order</text><rect fill="#E2E2F0" height="30.4883" rx="2.5" ry="2.5" style="stroke:#181818;stroke-width:0.5;" width="52" x="773.5" y="365.5938"/><text fill="#000000" font-family="sans-serif" font-size="14" lengthAdjust="spacing" textLength="38" x="780.5" y="386.1289">order</text><polygon fill="#181818" points="195.5,84.1094,205.5,88.1094,195.5,92.1094,199.5,88.1094" style="stroke:#181818;stroke-width:1.0;"/><line style="stroke:#181818;stroke-width:1.0;" x1="25.5" x2="201.5" y1="88.1094" y2="88.1094"/><text fill="#000000" font-family="sans-serif" font-size="13" lengthAdjust="spacing" textLength="158" x="32.5" y="83.3672">calling approve for token</text><polygon fill="#181818" points="507,113.4199,517,117.4199,507,121.4199,511,117.4199" style="stroke:#181818;stroke-width:1.0;"/><line style="stroke:#181818;stroke-width:1.0;" x1="207.5" x2="513" y1="117.4199" y2="117.4199"/><text fill="#000000" font-family="sans-serif" font-size="13" lengthAdjust="spacing" textLength="273" x="214.5" y="112.6777">approval event (get by blockchain-scanner)</text><polygon fill="#181818" points="350,142.7305,340,146.7305,350,150.7305,346,146.7305" style="stroke:#181818;stroke-width:1.0;"/><line style="stroke:#181818;stroke-width:1.0;" x1="344" x2="518" y1="146.7305" y2="146.7305"/><text fill="#000000" font-family="sans-serif" font-size="13" lengthAdjust="spacing" textLength="94" x="356" y="141.9883">kafka message</text><polygon fill="#181818" points="507,172.041,517,176.041,507,180.041,511,176.041" style="stroke:#181818;stroke-width:1.0;"/><line style="stroke:#181818;stroke-width:1.0;" x1="339" x2="513" y1="176.041" y2="176.041"/><text fill="#000000" font-family="sans-serif" font-size="13" lengthAdjust="spacing" textLength="94" x="346" y="171.2988">kafka message</text><polygon fill="#181818" points="689.5,201.3516,699.5,205.3516,689.5,209.3516,693.5,205.3516" style="stroke:#181818;stroke-width:1.0;"/><line style="stroke:#181818;stroke-width:1.0;" x1="519" x2="695.5" y1="205.3516" y2="205.3516"/><text fill="#000000" font-family="sans-serif" font-size="13" lengthAdjust="spacing" textLength="99" x="526" y="200.6094">saving approval</text><line style="stroke:#181818;stroke-width:1.0;" x1="519" x2="561" y1="234.6621" y2="234.6621"/><line style="stroke:#181818;stroke-width:1.0;" x1="561" x2="561" y1="234.6621" y2="247.6621"/><line style="stroke:#181818;stroke-width:1.0;" x1="520" x2="561" y1="247.6621" y2="247.6621"/><polygon fill="#181818" points="530,243.6621,520,247.6621,530,251.6621,526,247.6621" style="stroke:#181818;stroke-width:1.0;"/><text fill="#000000" font-family="sans-serif" font-size="13" lengthAdjust="spacing" textLength="154" x="526" y="229.9199">get plaftorm by operator</text><polygon fill="#181818" points="787.5,272.9727,797.5,276.9727,787.5,280.9727,791.5,276.9727" style="stroke:#181818;stroke-width:1.0;"/><line style="stroke:#181818;stroke-width:1.0;" x1="519" x2="793.5" y1="276.9727" y2="276.9727"/><text fill="#000000" font-family="sans-serif" font-size="13" lengthAdjust="spacing" textLength="114" x="526" y="272.2305">get existed orders</text><line style="stroke:#181818;stroke-width:1.0;" x1="519" x2="561" y1="306.2832" y2="306.2832"/><line style="stroke:#181818;stroke-width:1.0;" x1="561" x2="561" y1="306.2832" y2="319.2832"/><line style="stroke:#181818;stroke-width:1.0;" x1="520" x2="561" y1="319.2832" y2="319.2832"/><polygon fill="#181818" points="530,315.2832,520,319.2832,530,323.2832,526,319.2832" style="stroke:#181818;stroke-width:1.0;"/><text fill="#000000" font-family="sans-serif" font-size="13" lengthAdjust="spacing" textLength="114" x="526" y="301.541">set order approval</text><polygon fill="#181818" points="787.5,344.5938,797.5,348.5938,787.5,352.5938,791.5,348.5938" style="stroke:#181818;stroke-width:1.0;"/><line style="stroke:#181818;stroke-width:1.0;" x1="519" x2="793.5" y1="348.5938" y2="348.5938"/><text fill="#000000" font-family="sans-serif" font-size="13" lengthAdjust="spacing" textLength="188" x="526" y="343.8516">saving orders with new status</text><!--SRC=[TP3DReCm48JlVeeLf_P07u13JqMg54ML-dEk5bZ0ml5Qjal8szScfgcZvEZrDxCp-_6oW_8Pwi_N-ht-sbVGeb9I3u36M9u9UhRWUI8jDYRoIZfFccoLE5H0CsaF3mDvQ4xGA6wdTaIfIzUY3kYZs4JHe50yF6tQSWm_R4y5L31XFo4So3aSIDp1iWIvul-IrE4xwIfmE5-weShWYs6iO1JsGNE8NTYGnV38SBRTnj8IvzrvvEwOkW2kmEtjoIu5F3l1KVeHD1t1UVG_JeY65oXsiMyX35elMsamNFtscGJf3e8awTxMxL9tj93DzLkIAyMUzS0vUNNIx6zD_MVn2m00]--></g></svg>