<?xml version="1.0" encoding="us-ascii" standalone="no"?><svg xmlns="http://www.w3.org/2000/svg" xmlns:xlink="http://www.w3.org/1999/xlink" contentStyleType="text/css" height="566px" preserveAspectRatio="none" style="width:859px;height:566px;background:#FFFFFF;" version="1.1" viewBox="0 0 859 566" width="859px" zoomAndPan="magnify"><defs/><g><rect fill="#DDDDDD" height="554.6348" style="stroke:#181818;stroke-width:0.5;" width="163" x="257.5" y="6"/><text fill="#000000" font-family="sans-serif" font-size="13" font-weight="bold" lengthAdjust="spacing" textLength="38" x="320" y="18.5684">Kafka</text><rect fill="#DDDDDD" height="554.6348" style="stroke:#181818;stroke-width:0.5;" width="216" x="422.5" y="6"/><text fill="#000000" font-family="sans-serif" font-size="13" font-weight="bold" lengthAdjust="spacing" textLength="96" x="482.5" y="18.5684">Order indexer</text><rect fill="#DDDDDD" height="554.6348" style="stroke:#181818;stroke-width:0.5;" width="194" x="659" y="6"/><text fill="#000000" font-family="sans-serif" font-size="13" font-weight="bold" lengthAdjust="spacing" textLength="46" x="733" y="18.5684">Mongo</text><rect fill="#FFFFFF" height="273.4844" style="stroke:#181818;stroke-width:1.0;" width="10" x="439" y="234.6621"/><line style="stroke:#181818;stroke-width:0.5;stroke-dasharray:5.0,5.0;" x1="25" x2="25" y1="56.7988" y2="526.1465"/><line style="stroke:#181818;stroke-width:0.5;stroke-dasharray:5.0,5.0;" x1="207.5" x2="207.5" y1="56.7988" y2="526.1465"/><line style="stroke:#181818;stroke-width:0.5;stroke-dasharray:5.0,5.0;" x1="338.5" x2="338.5" y1="56.7988" y2="526.1465"/><line style="stroke:#181818;stroke-width:0.5;stroke-dasharray:5.0,5.0;" x1="443.5" x2="443.5" y1="56.7988" y2="526.1465"/><line style="stroke:#181818;stroke-width:0.5;stroke-dasharray:5.0,5.0;" x1="601.5" x2="601.5" y1="56.7988" y2="526.1465"/><line style="stroke:#181818;stroke-width:0.5;stroke-dasharray:5.0,5.0;" x1="725" x2="725" y1="56.7988" y2="526.1465"/><line style="stroke:#181818;stroke-width:0.5;stroke-dasharray:5.0,5.0;" x1="823" x2="823" y1="56.7988" y2="526.1465"/><rect fill="#E2E2F0" height="30.4883" rx="2.5" ry="2.5" style="stroke:#181818;stroke-width:0.5;" width="41" x="5" y="25.3105"/><text fill="#000000" font-family="sans-serif" font-size="14" lengthAdjust="spacing" textLength="27" x="12" y="45.8457">SDK</text><rect fill="#E2E2F0" height="30.4883" rx="2.5" ry="2.5" style="stroke:#181818;stroke-width:0.5;" width="41" x="5" y="525.1465"/><text fill="#000000" font-family="sans-serif" font-size="14" lengthAdjust="spacing" textLength="27" x="12" y="545.6816">SDK</text><rect fill="#E2E2F0" height="30.4883" rx="2.5" ry="2.5" style="stroke:#181818;stroke-width:0.5;" width="88" x="163.5" y="25.3105"/><text fill="#000000" font-family="sans-serif" font-size="14" lengthAdjust="spacing" textLength="74" x="170.5" y="45.8457">ETHEREUM</text><rect fill="#E2E2F0" height="30.4883" rx="2.5" ry="2.5" style="stroke:#181818;stroke-width:0.5;" width="88" x="163.5" y="525.1465"/><text fill="#000000" font-family="sans-serif" font-size="14" lengthAdjust="spacing" textLength="74" x="170.5" y="545.6816">ETHEREUM</text><rect fill="#E2E2F0" height="30.4883" rx="2.5" ry="2.5" style="stroke:#181818;stroke-width:0.5;" width="155" x="261.5" y="25.3105"/><text fill="#000000" font-family="sans-serif" font-size="14" lengthAdjust="spacing" textLength="141" x="268.5" y="45.8457">log.approval-history</text><rect fill="#E2E2F0" height="30.4883" rx="2.5" ry="2.5" style="stroke:#181818;stroke-width:0.5;" width="155" x="261.5" y="525.1465"/><text fill="#000000" font-family="sans-serif" font-size="14" lengthAdjust="spacing" textLength="141" x="268.5" y="545.6816">log.approval-history</text><rect fill="#E2E2F0" height="30.4883" rx="2.5" ry="2.5" style="stroke:#181818;stroke-width:0.5;" width="35" x="426.5" y="25.3105"/><text fill="#000000" font-family="sans-serif" font-size="14" lengthAdjust="spacing" textLength="21" x="433.5" y="45.8457">api</text><rect fill="#E2E2F0" height="30.4883" rx="2.5" ry="2.5" style="stroke:#181818;stroke-width:0.5;" width="35" x="426.5" y="525.1465"/><text fill="#000000" font-family="sans-serif" font-size="14" lengthAdjust="spacing" textLength="21" x="433.5" y="545.6816">api</text><rect fill="#E2E2F0" height="30.4883" rx="2.5" ry="2.5" style="stroke:#181818;stroke-width:0.5;" width="65" x="569.5" y="25.3105"/><text fill="#000000" font-family="sans-serif" font-size="14" lengthAdjust="spacing" textLength="51" x="576.5" y="45.8457">listener</text><rect fill="#E2E2F0" height="30.4883" rx="2.5" ry="2.5" style="stroke:#181818;stroke-width:0.5;" width="65" x="569.5" y="525.1465"/><text fill="#000000" font-family="sans-serif" font-size="14" lengthAdjust="spacing" textLength="51" x="576.5" y="545.6816">listener</text><rect fill="#E2E2F0" height="30.4883" rx="2.5" ry="2.5" style="stroke:#181818;stroke-width:0.5;" width="124" x="663" y="25.3105"/><text fill="#000000" font-family="sans-serif" font-size="14" lengthAdjust="spacing" textLength="110" x="670" y="45.8457">approve_history</text><rect fill="#E2E2F0" height="30.4883" rx="2.5" ry="2.5" style="stroke:#181818;stroke-width:0.5;" width="124" x="663" y="525.1465"/><text fill="#000000" font-family="sans-serif" font-size="14" lengthAdjust="spacing" textLength="110" x="670" y="545.6816">approve_history</text><rect fill="#E2E2F0" height="30.4883" rx="2.5" ry="2.5" style="stroke:#181818;stroke-width:0.5;" width="52" x="797" y="25.3105"/><text fill="#000000" font-family="sans-serif" font-size="14" lengthAdjust="spacing" textLength="38" x="804" y="45.8457">order</text><rect fill="#E2E2F0" height="30.4883" rx="2.5" ry="2.5" style="stroke:#181818;stroke-width:0.5;" width="52" x="797" y="525.1465"/><text fill="#000000" font-family="sans-serif" font-size="14" lengthAdjust="spacing" textLength="38" x="804" y="545.6816">order</text><rect fill="#FFFFFF" height="273.4844" style="stroke:#181818;stroke-width:1.0;" width="10" x="439" y="234.6621"/><polygon fill="#181818" points="195.5,84.1094,205.5,88.1094,195.5,92.1094,199.5,88.1094" style="stroke:#181818;stroke-width:1.0;"/><line style="stroke:#181818;stroke-width:1.0;" x1="25.5" x2="201.5" y1="88.1094" y2="88.1094"/><text fill="#000000" font-family="sans-serif" font-size="13" lengthAdjust="spacing" textLength="158" x="32.5" y="83.3672">calling approve for token</text><polygon fill="#181818" points="590,113.4199,600,117.4199,590,121.4199,594,117.4199" style="stroke:#181818;stroke-width:1.0;"/><line style="stroke:#181818;stroke-width:1.0;" x1="207.5" x2="596" y1="117.4199" y2="117.4199"/><text fill="#000000" font-family="sans-serif" font-size="13" lengthAdjust="spacing" textLength="273" x="214.5" y="112.6777">approval event (get by blockchain-scanner)</text><polygon fill="#181818" points="350,142.7305,340,146.7305,350,150.7305,346,146.7305" style="stroke:#181818;stroke-width:1.0;"/><line style="stroke:#181818;stroke-width:1.0;" x1="344" x2="601" y1="146.7305" y2="146.7305"/><text fill="#000000" font-family="sans-serif" font-size="13" lengthAdjust="spacing" textLength="94" x="356" y="141.9883">kafka message</text><polygon fill="#181818" points="590,172.041,600,176.041,590,180.041,594,176.041" style="stroke:#181818;stroke-width:1.0;"/><line style="stroke:#181818;stroke-width:1.0;" x1="339" x2="596" y1="176.041" y2="176.041"/><text fill="#000000" font-family="sans-serif" font-size="13" lengthAdjust="spacing" textLength="94" x="346" y="171.2988">kafka message</text><polygon fill="#181818" points="713,201.3516,723,205.3516,713,209.3516,717,205.3516" style="stroke:#181818;stroke-width:1.0;"/><line style="stroke:#181818;stroke-width:1.0;" x1="602" x2="719" y1="205.3516" y2="205.3516"/><text fill="#000000" font-family="sans-serif" font-size="13" lengthAdjust="spacing" textLength="99" x="609" y="200.6094">saving approval</text><polygon fill="#181818" points="427,230.6621,437,234.6621,427,238.6621,431,234.6621" style="stroke:#181818;stroke-width:1.0;"/><line style="stroke:#181818;stroke-width:1.0;" x1="25.5" x2="433" y1="234.6621" y2="234.6621"/><text fill="#000000" font-family="sans-serif" font-size="13" lengthAdjust="spacing" textLength="114" x="32.5" y="229.9199">creating sell order</text><polygon fill="#181818" points="811,259.9727,821,263.9727,811,267.9727,815,263.9727" style="stroke:#181818;stroke-width:1.0;"/><line style="stroke:#181818;stroke-width:1.0;" x1="449" x2="817" y1="263.9727" y2="263.9727"/><text fill="#000000" font-family="sans-serif" font-size="13" lengthAdjust="spacing" textLength="144" x="456" y="259.2305">checking existed order</text><line style="stroke:#181818;stroke-width:1.0;" x1="449" x2="491" y1="293.2832" y2="293.2832"/><line style="stroke:#181818;stroke-width:1.0;" x1="491" x2="491" y1="293.2832" y2="306.2832"/><line style="stroke:#181818;stroke-width:1.0;" x1="450" x2="491" y1="306.2832" y2="306.2832"/><polygon fill="#181818" points="460,302.2832,450,306.2832,460,310.2832,456,306.2832" style="stroke:#181818;stroke-width:1.0;"/><text fill="#000000" font-family="sans-serif" font-size="13" lengthAdjust="spacing" textLength="99" x="456" y="288.541">validating order</text><polygon fill="#181818" points="218.5,331.5938,208.5,335.5938,218.5,339.5938,214.5,335.5938" style="stroke:#181818;stroke-width:1.0;"/><line style="stroke:#181818;stroke-width:1.0;" x1="212.5" x2="438" y1="335.5938" y2="335.5938"/><text fill="#000000" font-family="sans-serif" font-size="13" lengthAdjust="spacing" textLength="123" x="224.5" y="330.8516">checking allowance</text><line style="stroke:#181818;stroke-width:1.0;" x1="449" x2="491" y1="364.9043" y2="364.9043"/><line style="stroke:#181818;stroke-width:1.0;" x1="491" x2="491" y1="364.9043" y2="377.9043"/><line style="stroke:#181818;stroke-width:1.0;" x1="450" x2="491" y1="377.9043" y2="377.9043"/><polygon fill="#181818" points="460,373.9043,450,377.9043,460,381.9043,456,377.9043" style="stroke:#181818;stroke-width:1.0;"/><text fill="#000000" font-family="sans-serif" font-size="13" lengthAdjust="spacing" textLength="92" x="456" y="360.1621">reducing order</text><polygon fill="#181818" points="713,403.2148,723,407.2148,713,411.2148,717,407.2148" style="stroke:#181818;stroke-width:1.0;"/><line style="stroke:#181818;stroke-width:1.0;" x1="449" x2="719" y1="407.2148" y2="407.2148"/><text fill="#000000" font-family="sans-serif" font-size="13" lengthAdjust="spacing" textLength="130" x="456" y="402.4727">getting last approval</text><line style="stroke:#181818;stroke-width:1.0;" x1="449" x2="491" y1="436.5254" y2="436.5254"/><line style="stroke:#181818;stroke-width:1.0;" x1="491" x2="491" y1="436.5254" y2="449.5254"/><line style="stroke:#181818;stroke-width:1.0;" x1="450" x2="491" y1="449.5254" y2="449.5254"/><polygon fill="#181818" points="460,445.5254,450,449.5254,460,453.5254,456,449.5254" style="stroke:#181818;stroke-width:1.0;"/><text fill="#000000" font-family="sans-serif" font-size="13" lengthAdjust="spacing" textLength="134" x="456" y="431.7832">seting order approval</text><polygon fill="#181818" points="811,474.8359,821,478.8359,811,482.8359,815,478.8359" style="stroke:#181818;stroke-width:1.0;"/><line style="stroke:#181818;stroke-width:1.0;" x1="449" x2="817" y1="478.8359" y2="478.8359"/><text fill="#000000" font-family="sans-serif" font-size="13" lengthAdjust="spacing" textLength="78" x="456" y="474.0938">saving order</text><polygon fill="#181818" points="36.5,504.1465,26.5,508.1465,36.5,512.1465,32.5,508.1465" style="stroke:#181818;stroke-width:1.0;"/><line style="stroke:#181818;stroke-width:1.0;" x1="30.5" x2="443" y1="508.1465" y2="508.1465"/><text fill="#000000" font-family="sans-serif" font-size="13" lengthAdjust="spacing" textLength="33" x="42.5" y="503.4043">order</text><!--SRC=[TPB1ReCm44Jl_eeLf_P0Fu13JqMg54MLclPSRUmDiN1iPBiq-VlQO0iSsWC7s3UpdZ67bntKpz1-lBRlxUU-0OvAITq13eCr8y79MF2c9yqo4tabdITDjaaSAg2Hj8U7ZZmSRt1KXlVyZ5BNZgCEw2FBecXGATCzPMrz3XDZRnKqqEEfHxYGSzWH-mShJb0grajIXg-aQy3Xk6H3nGvpUXna26u9VPmwKWgC5MGPSYz7z1G95fu8JvE0dudt4QTht2YoOeOcnx11Yjcp6AxApYQXTFE3cbDXO4byyuryaofKFYrHwFoIRMtaQ3d5XaY1KZV5gj1Faxu8AifWHtE5QXUhhzY0raik1mm_mDytnaWB29AaUviE8hMWAzbI7ytNx_a-xnpsHdVcNbdqKipc3DdY5m00]--></g></svg>