<?xml version="1.0" encoding="us-ascii" standalone="no"?><svg xmlns="http://www.w3.org/2000/svg" xmlns:xlink="http://www.w3.org/1999/xlink" contentStyleType="text/css" height="542px" preserveAspectRatio="none" style="width:1055px;height:542px;background:#FFFFFF;" version="1.1" viewBox="0 0 1055 542" width="1055px" zoomAndPan="magnify"><defs/><g><g id="ACTIVE"><rect fill="#F1F1F1" height="78.8867" rx="12.5" ry="12.5" style="stroke:#181818;stroke-width:0.5;" width="128" x="477" y="302"/><line style="stroke:#181818;stroke-width:0.5;" x1="477" x2="605" y1="328.4883" y2="328.4883"/><text fill="#000000" font-family="sans-serif" font-size="14" lengthAdjust="spacing" textLength="50" x="516" y="320.5352">ACTIVE</text><text fill="#000000" font-family="sans-serif" font-size="12" lengthAdjust="spacing" textLength="75" x="482" y="345.0898">has approval</text><text fill="#000000" font-family="sans-serif" font-size="12" lengthAdjust="spacing" textLength="88" x="482" y="359.2227">makeStock &gt; 0</text><text fill="#000000" font-family="sans-serif" font-size="12" lengthAdjust="spacing" textLength="108" x="482" y="373.3555">makeStock &lt; filled</text></g><g id="FILLED"><rect fill="#F1F1F1" height="50.6211" rx="12.5" ry="12.5" style="stroke:#181818;stroke-width:0.5;" width="128" x="7" y="472.02"/><line style="stroke:#181818;stroke-width:0.5;" x1="7" x2="135" y1="498.5083" y2="498.5083"/><text fill="#000000" font-family="sans-serif" font-size="14" lengthAdjust="spacing" textLength="44" x="49" y="490.5552">FILLED</text><text fill="#000000" font-family="sans-serif" font-size="12" lengthAdjust="spacing" textLength="108" x="12" y="515.1098">makeStock = filled</text></g><g id="NOT_STARTED"><rect fill="#F1F1F1" height="50.6211" rx="12.5" ry="12.5" style="stroke:#181818;stroke-width:0.5;" width="120" x="687" y="138.69"/><line style="stroke:#181818;stroke-width:0.5;" x1="687" x2="807" y1="165.1783" y2="165.1783"/><text fill="#000000" font-family="sans-serif" font-size="14" lengthAdjust="spacing" textLength="100" x="697" y="157.2252">NOT_STARTED</text><text fill="#000000" font-family="sans-serif" font-size="12" lengthAdjust="spacing" textLength="67" x="692" y="181.7798">start &gt; now</text></g><g id="ENDED"><rect fill="#F1F1F1" height="50.6211" rx="12.5" ry="12.5" style="stroke:#181818;stroke-width:0.5;" width="83" x="170.5" y="472.02"/><line style="stroke:#181818;stroke-width:0.5;" x1="170.5" x2="253.5" y1="498.5083" y2="498.5083"/><text fill="#000000" font-family="sans-serif" font-size="14" lengthAdjust="spacing" textLength="46" x="189" y="490.5552">ENDED</text><text fill="#000000" font-family="sans-serif" font-size="12" lengthAdjust="spacing" textLength="63" x="175.5" y="515.1098">end &lt; now</text></g><g id="CANCELED"><rect fill="#F1F1F1" height="50.6211" rx="12.5" ry="12.5" style="stroke:#181818;stroke-width:0.5;" width="112" x="368" y="472.02"/><line style="stroke:#181818;stroke-width:0.5;" x1="368" x2="480" y1="498.5083" y2="498.5083"/><text fill="#000000" font-family="sans-serif" font-size="14" lengthAdjust="spacing" textLength="73" x="387.5" y="490.5552">CANCELED</text><text fill="#000000" font-family="sans-serif" font-size="12" lengthAdjust="spacing" textLength="92" x="373" y="515.1098">canceled = true</text></g><g id="INACTIVE"><rect fill="#F1F1F1" height="78.8867" rx="12.5" ry="12.5" style="stroke:#181818;stroke-width:0.5;" width="203" x="704.5" y="457.88"/><line style="stroke:#181818;stroke-width:0.5;" x1="704.5" x2="907.5" y1="484.3683" y2="484.3683"/><text fill="#000000" font-family="sans-serif" font-size="14" lengthAdjust="spacing" textLength="64" x="774" y="476.4152">INACTIVE</text><text fill="#000000" font-family="sans-serif" font-size="12" lengthAdjust="spacing" textLength="159" x="709.5" y="500.9698">no approval for make asset</text><text fill="#000000" font-family="sans-serif" font-size="12" lengthAdjust="spacing" textLength="183" x="709.5" y="515.1027">or no ownership for make asset</text><text fill="#000000" font-family="sans-serif" font-size="12" lengthAdjust="spacing" textLength="104" x="709.5" y="529.2355">or makeStock = 0</text></g><ellipse cx="747" cy="16" fill="#181818" rx="10" ry="10" style="stroke:none;stroke-width:1.0;"/><!--link *start* to ACTIVE--><g id="link_*start*_ACTIVE"><path d="M737.34,19.79 C705.16,29.67 601.25,66.26 558,138 C529.07,185.98 529.5,252.37 533.99,295.85 " fill="none" id="*start*-to-ACTIVE" style="stroke:#181818;stroke-width:1.0;"/><polygon fill="#181818" points="534.62,300.56,537.6194,291.179,534.0772,295.5895,529.6667,292.0474,534.62,300.56" style="stroke:#181818;stroke-width:1.0;"/><text fill="#000000" font-family="sans-serif" font-size="13" lengthAdjust="spacing" textLength="75" x="576" y="151.5684">create order</text><path d="M563,160.3105 L563,185.3105 L664,185.3105 L664,170.3105 L654,160.3105 L563,160.3105 " fill="#FEFFDD" style="stroke:#181818;stroke-width:0.5;"/><path d="M654,160.3105 L654,170.3105 L664,170.3105 L654,160.3105 " fill="#FEFFDD" style="stroke:#181818;stroke-width:0.5;"/><text fill="#000000" font-family="sans-serif" font-size="13" lengthAdjust="spacing" textLength="80" x="569" y="177.8789">has approval</text></g><!--link *start* to NOT_STARTED--><g id="link_*start*_NOT_STARTED"><path d="M747,26.13 C747,47.02 747,99.07 747,132.62 " fill="none" id="*start*-to-NOT_STARTED" style="stroke:#181818;stroke-width:1.0;"/><polygon fill="#181818" points="747,137.25,751,128.25,747,132.25,743,128.25,747,137.25" style="stroke:#181818;stroke-width:1.0;"/><text fill="#000000" font-family="sans-serif" font-size="13" lengthAdjust="spacing" textLength="75" x="761.5" y="69.5684">create order</text><path d="M752,78.3105 L752,103.3105 L846,103.3105 L846,88.3105 L836,78.3105 L752,78.3105 " fill="#FEFFDD" style="stroke:#181818;stroke-width:0.5;"/><path d="M836,78.3105 L836,88.3105 L846,88.3105 L836,78.3105 " fill="#FEFFDD" style="stroke:#181818;stroke-width:0.5;"/><text fill="#000000" font-family="sans-serif" font-size="13" lengthAdjust="spacing" textLength="73" x="758" y="95.8789">start &gt; now</text></g><!--link *start* to INACTIVE--><g id="link_*start*_INACTIVE"><path d="M757.38,17.18 C779.92,18.19 833.38,24.02 859,56 C962.96,185.78 975.42,279.68 900,427.88 C895.04,437.62 887.98,446.31 879.92,453.94 " fill="none" id="*start*-to-INACTIVE" style="stroke:#181818;stroke-width:1.0;"/><polygon fill="#181818" points="876.89,456.61,886.2366,453.5049,880.5858,453.2424,880.8484,447.5916,876.89,456.61" style="stroke:#181818;stroke-width:1.0;"/><text fill="#000000" font-family="sans-serif" font-size="13" lengthAdjust="spacing" textLength="75" x="963" y="233.5684">create order</text><path d="M953,242.3105 L953,267.3105 L1048,267.3105 L1048,252.3105 L1038,242.3105 L953,242.3105 " fill="#FEFFDD" style="stroke:#181818;stroke-width:0.5;"/><path d="M1038,242.3105 L1038,252.3105 L1048,252.3105 L1038,242.3105 " fill="#FEFFDD" style="stroke:#181818;stroke-width:0.5;"/><text fill="#000000" font-family="sans-serif" font-size="13" lengthAdjust="spacing" textLength="74" x="959" y="259.8789">no approval</text></g><!--link NOT_STARTED to ACTIVE--><g id="link_NOT_STARTED_ACTIVE"><path d="M717.92,189.76 C684.96,217.83 630.66,264.08 590.9,297.94 " fill="none" id="NOT_STARTED-to-ACTIVE" style="stroke:#181818;stroke-width:1.0;"/><polygon fill="#181818" points="587.61,301.6,597.0577,298.8179,591.4193,298.3613,591.8759,292.7229,587.61,301.6" style="stroke:#181818;stroke-width:1.0;"/><text fill="#000000" font-family="sans-serif" font-size="13" lengthAdjust="spacing" textLength="155" x="681" y="251.0684">activate by start/end job</text></g><!--link ACTIVE to INACTIVE--><g id="link_ACTIVE_INACTIVE"><path d="M531.3,381.09 C529.58,397.07 530.92,414.87 541,427.88 C560.74,453.36 633.97,471.06 698.46,482.06 " fill="none" id="ACTIVE-to-INACTIVE" style="stroke:#181818;stroke-width:1.0;"/><polygon fill="#181818" points="703.27,483.04,695.0577,477.6033,698.3392,482.2111,693.7314,485.4925,703.27,483.04" style="stroke:#181818;stroke-width:1.0;"/><text fill="#000000" font-family="sans-serif" font-size="13" lengthAdjust="spacing" textLength="220" x="542" y="424.4484">remove approval or makeStock = 0</text></g><!--link INACTIVE to ACTIVE--><g id="link_INACTIVE_ACTIVE"><path d="M796.07,457.48 C790.1,441.08 780.87,423.01 767,410.88 C723.7,373.03 659.98,356.11 611.23,348.55 " fill="none" id="INACTIVE-to-ACTIVE" style="stroke:#181818;stroke-width:1.0;"/><polygon fill="#181818" points="606.36,347.67,614.6805,352.9397,611.3066,348.3991,615.8471,345.0252,606.36,347.67" style="stroke:#181818;stroke-width:1.0;"/><text fill="#000000" font-family="sans-serif" font-size="13" lengthAdjust="spacing" textLength="110" x="781" y="424.4484">received approval</text></g><!--link ACTIVE to CANCELED--><g id="link_ACTIVE_CANCELED"><path d="M476.63,363.82 C455.05,374.42 433.35,389.63 421,410.88 C411.42,427.37 412.21,448.83 415.38,466.12 " fill="none" id="ACTIVE-to-CANCELED" style="stroke:#181818;stroke-width:1.0;"/><polygon fill="#181818" points="416.53,470.81,418.6496,461.1919,415.5302,465.911,410.8111,462.7916,416.53,470.81" style="stroke:#181818;stroke-width:1.0;"/><text fill="#000000" font-family="sans-serif" font-size="13" lengthAdjust="spacing" textLength="78" x="422" y="424.4484">cancel event</text></g><!--link ACTIVE to ACTIVE--><g id="link_ACTIVE_ACTIVE"><path d="M605.27,326.85 C624.76,327.21 640,332.08 640,341.44 C640,349.85 627.7,354.63 611.07,355.78 " fill="none" id="ACTIVE-to-ACTIVE" style="stroke:#181818;stroke-width:1.0;"/><polygon fill="#181818" points="606.27,356.03,615.4335,359.6398,611.2654,355.8153,615.0899,351.6472,606.27,356.03" style="stroke:#181818;stroke-width:1.0;"/><text fill="#000000" font-family="sans-serif" font-size="13" lengthAdjust="spacing" textLength="77" x="646" y="346.5084">match event</text></g><!--link ACTIVE to FILLED--><g id="link_ACTIVE_FILLED"><path d="M476.83,347.61 C377.77,356.53 193.2,377.16 137,410.88 C114.92,424.13 97.54,447.76 86.16,466.82 " fill="none" id="ACTIVE-to-FILLED" style="stroke:#181818;stroke-width:1.0;"/><polygon fill="#181818" points="83.4,470.56,91.4018,464.8179,85.9282,466.2463,84.4999,460.7727,83.4,470.56" style="stroke:#181818;stroke-width:1.0;"/><text fill="#000000" font-family="sans-serif" font-size="13" lengthAdjust="spacing" textLength="77" x="138" y="424.4484">match event</text></g><!--link ACTIVE to ENDED--><g id="link_ACTIVE_ENDED"><path d="M476.77,349 C397.53,358.39 269.1,378.21 235,410.88 C220.22,425.04 214.6,447.6 212.6,465.99 " fill="none" id="ACTIVE-to-ENDED" style="stroke:#181818;stroke-width:1.0;"/><polygon fill="#181818" points="212.09,470.54,216.8951,461.9428,212.5465,465.5609,208.9285,461.2124,212.09,470.54" style="stroke:#181818;stroke-width:1.0;"/><text fill="#000000" font-family="sans-serif" font-size="13" lengthAdjust="spacing" textLength="170" x="236" y="424.4484">deactivate by start/end job</text></g><!--SRC=[XP9TIyCm58RlyolEjJ3SjUYWT1KAeu8hteX8bfxHs3OfISpmtvlqQscdsrquxvldV4Pndhub3r1I3RHjbRIq9j4GR6Y5UoDP1HjO_n5zX2ElQop8SxhR9TjGUXgbx2N_tEVHQ-vrRQWo3YRaYIJPreTG58xZ0t6KnKc7OLGmT9yTnQXl96asvXPogXAEKdK9WMgD9Z2vkFF9aq2bIzvUDOOLhmbvl_k0rMe3lGDSAGgfGUSiK14X_LD0pKL5O3uptuVN9qJG-0rEE9KBp5Zj3KOmc3CZB67M5MM6Myyw_FJPx_sVBtaObhpChB2H5i-ZlnXSy6rS8unx1BGeJ6YPk0qrh1pqATtCeP0Xj-uK5iVPkVgpMt02lJin9nVuVyE_]--></g></svg>