<?xml version="1.0" encoding="us-ascii" standalone="no"?><svg xmlns="http://www.w3.org/2000/svg" xmlns:xlink="http://www.w3.org/1999/xlink" contentStyleType="text/css" height="508px" preserveAspectRatio="none" style="width:774px;height:508px;background:#FFFFFF;" version="1.1" viewBox="0 0 774 508" width="774px" zoomAndPan="magnify"><defs/><g><rect fill="#DDDDDD" height="496.0137" style="stroke:#181818;stroke-width:0.5;" width="216" x="338" y="6"/><text fill="#000000" font-family="sans-serif" font-size="13" font-weight="bold" lengthAdjust="spacing" textLength="96" x="398" y="18.5684">Order indexer</text><rect fill="#DDDDDD" height="496.0137" style="stroke:#181818;stroke-width:0.5;" width="194" x="574.5" y="6"/><text fill="#000000" font-family="sans-serif" font-size="13" font-weight="bold" lengthAdjust="spacing" textLength="46" x="648.5" y="18.5684">Mongo</text><rect fill="#FFFFFF" height="273.4844" style="stroke:#181818;stroke-width:1.0;" width="10" x="354.5" y="176.041"/><line style="stroke:#181818;stroke-width:0.5;stroke-dasharray:5.0,5.0;" x1="25" x2="25" y1="56.7988" y2="467.5254"/><line style="stroke:#181818;stroke-width:0.5;stroke-dasharray:5.0,5.0;" x1="207.5" x2="207.5" y1="56.7988" y2="467.5254"/><line style="stroke:#181818;stroke-width:0.5;stroke-dasharray:5.0,5.0;" x1="359" x2="359" y1="56.7988" y2="467.5254"/><line style="stroke:#181818;stroke-width:0.5;stroke-dasharray:5.0,5.0;" x1="517" x2="517" y1="56.7988" y2="467.5254"/><line style="stroke:#181818;stroke-width:0.5;stroke-dasharray:5.0,5.0;" x1="640.5" x2="640.5" y1="56.7988" y2="467.5254"/><line style="stroke:#181818;stroke-width:0.5;stroke-dasharray:5.0,5.0;" x1="738.5" x2="738.5" y1="56.7988" y2="467.5254"/><rect fill="#E2E2F0" height="30.4883" rx="2.5" ry="2.5" style="stroke:#181818;stroke-width:0.5;" width="41" x="5" y="25.3105"/><text fill="#000000" font-family="sans-serif" font-size="14" lengthAdjust="spacing" textLength="27" x="12" y="45.8457">SDK</text><rect fill="#E2E2F0" height="30.4883" rx="2.5" ry="2.5" style="stroke:#181818;stroke-width:0.5;" width="41" x="5" y="466.5254"/><text fill="#000000" font-family="sans-serif" font-size="14" lengthAdjust="spacing" textLength="27" x="12" y="487.0605">SDK</text><rect fill="#E2E2F0" height="30.4883" rx="2.5" ry="2.5" style="stroke:#181818;stroke-width:0.5;" width="88" x="163.5" y="25.3105"/><text fill="#000000" font-family="sans-serif" font-size="14" lengthAdjust="spacing" textLength="74" x="170.5" y="45.8457">ETHEREUM</text><rect fill="#E2E2F0" height="30.4883" rx="2.5" ry="2.5" style="stroke:#181818;stroke-width:0.5;" width="88" x="163.5" y="466.5254"/><text fill="#000000" font-family="sans-serif" font-size="14" lengthAdjust="spacing" textLength="74" x="170.5" y="487.0605">ETHEREUM</text><rect fill="#E2E2F0" height="30.4883" rx="2.5" ry="2.5" style="stroke:#181818;stroke-width:0.5;" width="35" x="342" y="25.3105"/><text fill="#000000" font-family="sans-serif" font-size="14" lengthAdjust="spacing" textLength="21" x="349" y="45.8457">api</text><rect fill="#E2E2F0" height="30.4883" rx="2.5" ry="2.5" style="stroke:#181818;stroke-width:0.5;" width="35" x="342" y="466.5254"/><text fill="#000000" font-family="sans-serif" font-size="14" lengthAdjust="spacing" textLength="21" x="349" y="487.0605">api</text><rect fill="#E2E2F0" height="30.4883" rx="2.5" ry="2.5" style="stroke:#181818;stroke-width:0.5;" width="65" x="485" y="25.3105"/><text fill="#000000" font-family="sans-serif" font-size="14" lengthAdjust="spacing" textLength="51" x="492" y="45.8457">listener</text><rect fill="#E2E2F0" height="30.4883" rx="2.5" ry="2.5" style="stroke:#181818;stroke-width:0.5;" width="65" x="485" y="466.5254"/><text fill="#000000" font-family="sans-serif" font-size="14" lengthAdjust="spacing" textLength="51" x="492" y="487.0605">listener</text><rect fill="#E2E2F0" height="30.4883" rx="2.5" ry="2.5" style="stroke:#181818;stroke-width:0.5;" width="124" x="578.5" y="25.3105"/><text fill="#000000" font-family="sans-serif" font-size="14" lengthAdjust="spacing" textLength="110" x="585.5" y="45.8457">approve_history</text><rect fill="#E2E2F0" height="30.4883" rx="2.5" ry="2.5" style="stroke:#181818;stroke-width:0.5;" width="124" x="578.5" y="466.5254"/><text fill="#000000" font-family="sans-serif" font-size="14" lengthAdjust="spacing" textLength="110" x="585.5" y="487.0605">approve_history</text><rect fill="#E2E2F0" height="30.4883" rx="2.5" ry="2.5" style="stroke:#181818;stroke-width:0.5;" width="52" x="712.5" y="25.3105"/><text fill="#000000" font-family="sans-serif" font-size="14" lengthAdjust="spacing" textLength="38" x="719.5" y="45.8457">order</text><rect fill="#E2E2F0" height="30.4883" rx="2.5" ry="2.5" style="stroke:#181818;stroke-width:0.5;" width="52" x="712.5" y="466.5254"/><text fill="#000000" font-family="sans-serif" font-size="14" lengthAdjust="spacing" textLength="38" x="719.5" y="487.0605">order</text><rect fill="#FFFFFF" height="273.4844" style="stroke:#181818;stroke-width:1.0;" width="10" x="354.5" y="176.041"/><polygon fill="#181818" points="195.5,84.1094,205.5,88.1094,195.5,92.1094,199.5,88.1094" style="stroke:#181818;stroke-width:1.0;"/><line style="stroke:#181818;stroke-width:1.0;" x1="25.5" x2="201.5" y1="88.1094" y2="88.1094"/><text fill="#000000" font-family="sans-serif" font-size="13" lengthAdjust="spacing" textLength="158" x="32.5" y="83.3672">calling approve for token</text><polygon fill="#181818" points="505.5,113.4199,515.5,117.4199,505.5,121.4199,509.5,117.4199" style="stroke:#181818;stroke-width:1.0;"/><line style="stroke:#181818;stroke-width:1.0;" x1="207.5" x2="511.5" y1="117.4199" y2="117.4199"/><text fill="#000000" font-family="sans-serif" font-size="13" lengthAdjust="spacing" textLength="92" x="214.5" y="112.6777">approval event</text><polygon fill="#181818" points="628.5,142.7305,638.5,146.7305,628.5,150.7305,632.5,146.7305" style="stroke:#181818;stroke-width:1.0;"/><line style="stroke:#181818;stroke-width:1.0;" x1="517.5" x2="634.5" y1="146.7305" y2="146.7305"/><text fill="#000000" font-family="sans-serif" font-size="13" lengthAdjust="spacing" textLength="99" x="524.5" y="141.9883">saving approval</text><polygon fill="#181818" points="342.5,172.041,352.5,176.041,342.5,180.041,346.5,176.041" style="stroke:#181818;stroke-width:1.0;"/><line style="stroke:#181818;stroke-width:1.0;" x1="25.5" x2="348.5" y1="176.041" y2="176.041"/><text fill="#000000" font-family="sans-serif" font-size="13" lengthAdjust="spacing" textLength="114" x="32.5" y="171.2988">creating sell order</text><polygon fill="#181818" points="726.5,201.3516,736.5,205.3516,726.5,209.3516,730.5,205.3516" style="stroke:#181818;stroke-width:1.0;"/><line style="stroke:#181818;stroke-width:1.0;" x1="364.5" x2="732.5" y1="205.3516" y2="205.3516"/><text fill="#000000" font-family="sans-serif" font-size="13" lengthAdjust="spacing" textLength="144" x="371.5" y="200.6094">checking existed order</text><line style="stroke:#181818;stroke-width:1.0;" x1="364.5" x2="406.5" y1="234.6621" y2="234.6621"/><line style="stroke:#181818;stroke-width:1.0;" x1="406.5" x2="406.5" y1="234.6621" y2="247.6621"/><line style="stroke:#181818;stroke-width:1.0;" x1="365.5" x2="406.5" y1="247.6621" y2="247.6621"/><polygon fill="#181818" points="375.5,243.6621,365.5,247.6621,375.5,251.6621,371.5,247.6621" style="stroke:#181818;stroke-width:1.0;"/><text fill="#000000" font-family="sans-serif" font-size="13" lengthAdjust="spacing" textLength="99" x="371.5" y="229.9199">validating order</text><polygon fill="#181818" points="218.5,272.9727,208.5,276.9727,218.5,280.9727,214.5,276.9727" style="stroke:#181818;stroke-width:1.0;"/><line style="stroke:#181818;stroke-width:1.0;" x1="212.5" x2="353.5" y1="276.9727" y2="276.9727"/><text fill="#000000" font-family="sans-serif" font-size="13" lengthAdjust="spacing" textLength="123" x="224.5" y="272.2305">checking allowance</text><line style="stroke:#181818;stroke-width:1.0;" x1="364.5" x2="406.5" y1="306.2832" y2="306.2832"/><line style="stroke:#181818;stroke-width:1.0;" x1="406.5" x2="406.5" y1="306.2832" y2="319.2832"/><line style="stroke:#181818;stroke-width:1.0;" x1="365.5" x2="406.5" y1="319.2832" y2="319.2832"/><polygon fill="#181818" points="375.5,315.2832,365.5,319.2832,375.5,323.2832,371.5,319.2832" style="stroke:#181818;stroke-width:1.0;"/><text fill="#000000" font-family="sans-serif" font-size="13" lengthAdjust="spacing" textLength="92" x="371.5" y="301.541">reducing order</text><polygon fill="#181818" points="628.5,344.5938,638.5,348.5938,628.5,352.5938,632.5,348.5938" style="stroke:#181818;stroke-width:1.0;"/><line style="stroke:#181818;stroke-width:1.0;" x1="364.5" x2="634.5" y1="348.5938" y2="348.5938"/><text fill="#000000" font-family="sans-serif" font-size="13" lengthAdjust="spacing" textLength="130" x="371.5" y="343.8516">getting last approval</text><line style="stroke:#181818;stroke-width:1.0;" x1="364.5" x2="406.5" y1="377.9043" y2="377.9043"/><line style="stroke:#181818;stroke-width:1.0;" x1="406.5" x2="406.5" y1="377.9043" y2="390.9043"/><line style="stroke:#181818;stroke-width:1.0;" x1="365.5" x2="406.5" y1="390.9043" y2="390.9043"/><polygon fill="#181818" points="375.5,386.9043,365.5,390.9043,375.5,394.9043,371.5,390.9043" style="stroke:#181818;stroke-width:1.0;"/><text fill="#000000" font-family="sans-serif" font-size="13" lengthAdjust="spacing" textLength="134" x="371.5" y="373.1621">seting order approval</text><polygon fill="#181818" points="726.5,416.2148,736.5,420.2148,726.5,424.2148,730.5,420.2148" style="stroke:#181818;stroke-width:1.0;"/><line style="stroke:#181818;stroke-width:1.0;" x1="364.5" x2="732.5" y1="420.2148" y2="420.2148"/><text fill="#000000" font-family="sans-serif" font-size="13" lengthAdjust="spacing" textLength="78" x="371.5" y="415.4727">saving order</text><polygon fill="#181818" points="36.5,445.5254,26.5,449.5254,36.5,453.5254,32.5,449.5254" style="stroke:#181818;stroke-width:1.0;"/><line style="stroke:#181818;stroke-width:1.0;" x1="30.5" x2="358.5" y1="449.5254" y2="449.5254"/><text fill="#000000" font-family="sans-serif" font-size="13" lengthAdjust="spacing" textLength="33" x="42.5" y="444.7832">order</text><!--SRC=[PP51JyGW48Nl_8h9tlq3FNYoYOdPcBZksOmmTiaI80FM-ky52ccnXnxWVVCURtfvUe67HnZVdyUtyNeUGA8nsaw0thER2RuSGtHtig8ncJSwHBB4G-NG0CraesX2Xgh5notTEVuT8E2yMQCHbpKSlKwvJ1Yp6iWOSAo81SgePuoK2P6-31SbuJUIzupJaXDLcrYXufWIj5ezEt7NjPcapku7hQJEW4bzoyFueTL4iOGO377hjZSAjBtYGDH2TJTTLDhFK6yKTSiGujCjS7ejZjegMeXFmYD7BRL76mkrFxSV8yWgICFLuUpivFvFTWKxRNrCi_W3]--></g></svg>