<?xml version="1.0" encoding="us-ascii" standalone="no"?><svg xmlns="http://www.w3.org/2000/svg" xmlns:xlink="http://www.w3.org/1999/xlink" contentStyleType="text/css" height="377px" preserveAspectRatio="none" style="width:640px;height:377px;background:#FFFFFF;" version="1.1" viewBox="0 0 640 377" width="640px" zoomAndPan="magnify"><defs/><g><rect fill="#DDDDDD" height="365.7715" style="stroke:#181818;stroke-width:0.5;" width="102" x="287" y="6"/><text fill="#000000" font-family="sans-serif" font-size="13" font-weight="bold" lengthAdjust="spacing" textLength="96" x="290" y="18.5684">Order indexer</text><rect fill="#DDDDDD" height="365.7715" style="stroke:#181818;stroke-width:0.5;" width="194" x="440.5" y="6"/><text fill="#000000" font-family="sans-serif" font-size="13" font-weight="bold" lengthAdjust="spacing" textLength="46" x="514.5" y="18.5684">Mongo</text><line style="stroke:#181818;stroke-width:0.5;stroke-dasharray:5.0,5.0;" x1="25" x2="25" y1="56.7988" y2="337.2832"/><line style="stroke:#181818;stroke-width:0.5;stroke-dasharray:5.0,5.0;" x1="207.5" x2="207.5" y1="56.7988" y2="337.2832"/><line style="stroke:#181818;stroke-width:0.5;stroke-dasharray:5.0,5.0;" x1="337.5" x2="337.5" y1="56.7988" y2="337.2832"/><line style="stroke:#181818;stroke-width:0.5;stroke-dasharray:5.0,5.0;" x1="506.5" x2="506.5" y1="56.7988" y2="337.2832"/><line style="stroke:#181818;stroke-width:0.5;stroke-dasharray:5.0,5.0;" x1="604.5" x2="604.5" y1="56.7988" y2="337.2832"/><rect fill="#E2E2F0" height="30.4883" rx="2.5" ry="2.5" style="stroke:#181818;stroke-width:0.5;" width="41" x="5" y="25.3105"/><text fill="#000000" font-family="sans-serif" font-size="14" lengthAdjust="spacing" textLength="27" x="12" y="45.8457">SDK</text><rect fill="#E2E2F0" height="30.4883" rx="2.5" ry="2.5" style="stroke:#181818;stroke-width:0.5;" width="41" x="5" y="336.2832"/><text fill="#000000" font-family="sans-serif" font-size="14" lengthAdjust="spacing" textLength="27" x="12" y="356.8184">SDK</text><rect fill="#E2E2F0" height="30.4883" rx="2.5" ry="2.5" style="stroke:#181818;stroke-width:0.5;" width="88" x="163.5" y="25.3105"/><text fill="#000000" font-family="sans-serif" font-size="14" lengthAdjust="spacing" textLength="74" x="170.5" y="45.8457">ETHEREUM</text><rect fill="#E2E2F0" height="30.4883" rx="2.5" ry="2.5" style="stroke:#181818;stroke-width:0.5;" width="88" x="163.5" y="336.2832"/><text fill="#000000" font-family="sans-serif" font-size="14" lengthAdjust="spacing" textLength="74" x="170.5" y="356.8184">ETHEREUM</text><rect fill="#E2E2F0" height="30.4883" rx="2.5" ry="2.5" style="stroke:#181818;stroke-width:0.5;" width="65" x="305.5" y="25.3105"/><text fill="#000000" font-family="sans-serif" font-size="14" lengthAdjust="spacing" textLength="51" x="312.5" y="45.8457">listener</text><rect fill="#E2E2F0" height="30.4883" rx="2.5" ry="2.5" style="stroke:#181818;stroke-width:0.5;" width="65" x="305.5" y="336.2832"/><text fill="#000000" font-family="sans-serif" font-size="14" lengthAdjust="spacing" textLength="51" x="312.5" y="356.8184">listener</text><rect fill="#E2E2F0" height="30.4883" rx="2.5" ry="2.5" style="stroke:#181818;stroke-width:0.5;" width="124" x="444.5" y="25.3105"/><text fill="#000000" font-family="sans-serif" font-size="14" lengthAdjust="spacing" textLength="110" x="451.5" y="45.8457">approve_history</text><rect fill="#E2E2F0" height="30.4883" rx="2.5" ry="2.5" style="stroke:#181818;stroke-width:0.5;" width="124" x="444.5" y="336.2832"/><text fill="#000000" font-family="sans-serif" font-size="14" lengthAdjust="spacing" textLength="110" x="451.5" y="356.8184">approve_history</text><rect fill="#E2E2F0" height="30.4883" rx="2.5" ry="2.5" style="stroke:#181818;stroke-width:0.5;" width="52" x="578.5" y="25.3105"/><text fill="#000000" font-family="sans-serif" font-size="14" lengthAdjust="spacing" textLength="38" x="585.5" y="45.8457">order</text><rect fill="#E2E2F0" height="30.4883" rx="2.5" ry="2.5" style="stroke:#181818;stroke-width:0.5;" width="52" x="578.5" y="336.2832"/><text fill="#000000" font-family="sans-serif" font-size="14" lengthAdjust="spacing" textLength="38" x="585.5" y="356.8184">order</text><polygon fill="#181818" points="195.5,84.1094,205.5,88.1094,195.5,92.1094,199.5,88.1094" style="stroke:#181818;stroke-width:1.0;"/><line style="stroke:#181818;stroke-width:1.0;" x1="25.5" x2="201.5" y1="88.1094" y2="88.1094"/><text fill="#000000" font-family="sans-serif" font-size="13" lengthAdjust="spacing" textLength="158" x="32.5" y="83.3672">calling approve for token</text><polygon fill="#181818" points="326,113.4199,336,117.4199,326,121.4199,330,117.4199" style="stroke:#181818;stroke-width:1.0;"/><line style="stroke:#181818;stroke-width:1.0;" x1="207.5" x2="332" y1="117.4199" y2="117.4199"/><text fill="#000000" font-family="sans-serif" font-size="13" lengthAdjust="spacing" textLength="92" x="214.5" y="112.6777">approval event</text><polygon fill="#181818" points="494.5,142.7305,504.5,146.7305,494.5,150.7305,498.5,146.7305" style="stroke:#181818;stroke-width:1.0;"/><line style="stroke:#181818;stroke-width:1.0;" x1="338" x2="500.5" y1="146.7305" y2="146.7305"/><text fill="#000000" font-family="sans-serif" font-size="13" lengthAdjust="spacing" textLength="99" x="345" y="141.9883">saving approval</text><polygon fill="#181818" points="592.5,172.041,602.5,176.041,592.5,180.041,596.5,176.041" style="stroke:#181818;stroke-width:1.0;"/><line style="stroke:#181818;stroke-width:1.0;" x1="338" x2="598.5" y1="176.041" y2="176.041"/><text fill="#000000" font-family="sans-serif" font-size="13" lengthAdjust="spacing" textLength="107" x="345" y="171.2988">get existed order</text><line style="stroke:#181818;stroke-width:1.0;" x1="338" x2="380" y1="205.3516" y2="205.3516"/><line style="stroke:#181818;stroke-width:1.0;" x1="380" x2="380" y1="205.3516" y2="218.3516"/><line style="stroke:#181818;stroke-width:1.0;" x1="339" x2="380" y1="218.3516" y2="218.3516"/><polygon fill="#181818" points="349,214.3516,339,218.3516,349,222.3516,345,218.3516" style="stroke:#181818;stroke-width:1.0;"/><text fill="#000000" font-family="sans-serif" font-size="13" lengthAdjust="spacing" textLength="92" x="345" y="200.6094">reducing order</text><polygon fill="#181818" points="494.5,243.6621,504.5,247.6621,494.5,251.6621,498.5,247.6621" style="stroke:#181818;stroke-width:1.0;"/><line style="stroke:#181818;stroke-width:1.0;" x1="338" x2="500.5" y1="247.6621" y2="247.6621"/><text fill="#000000" font-family="sans-serif" font-size="13" lengthAdjust="spacing" textLength="130" x="345" y="242.9199">getting last approval</text><line style="stroke:#181818;stroke-width:1.0;" x1="338" x2="380" y1="276.9727" y2="276.9727"/><line style="stroke:#181818;stroke-width:1.0;" x1="380" x2="380" y1="276.9727" y2="289.9727"/><line style="stroke:#181818;stroke-width:1.0;" x1="339" x2="380" y1="289.9727" y2="289.9727"/><polygon fill="#181818" points="349,285.9727,339,289.9727,349,293.9727,345,289.9727" style="stroke:#181818;stroke-width:1.0;"/><text fill="#000000" font-family="sans-serif" font-size="13" lengthAdjust="spacing" textLength="114" x="345" y="272.2305">set order approval</text><polygon fill="#181818" points="592.5,315.2832,602.5,319.2832,592.5,323.2832,596.5,319.2832" style="stroke:#181818;stroke-width:1.0;"/><line style="stroke:#181818;stroke-width:1.0;" x1="338" x2="598.5" y1="319.2832" y2="319.2832"/><text fill="#000000" font-family="sans-serif" font-size="13" lengthAdjust="spacing" textLength="78" x="345" y="314.541">saving order</text><!--SRC=[VO_B2i8m44Nt-OgXUt-W2rSM12c2ZxMCpLY38Gb9BFNlJThK4YjkxvmvT-QusS5g3TLfMnsgSrr2Wr8ArG8QOtL7SDCMl7wGOXCJUIcS9qMsJ1nAe8wKPzCWGabnkOTCsrS93hjPZJA3jULHrv87wcFEnoY3vbfB_Db4sH9Qr0QdZwX4vt-NpruN-WVbtolJ8sCtOrVTGx4VjeJYr9Cjc47hHICCAl_HCr8S0fmsQgrQdPDVjsUpiMrIl040]--></g></svg>